{"glyphs":{"0":{"ha":710,"x_min":57,"x_max":656,"o":"m 358 792 q 198 666 243 792 q 173 536 177 597 q 169 432 169 474 q 172 351 169 390 q 181 274 176 313 q 199 199 187 235 q 233 134 211 163 q 358 73 278 72 q 543 351 527 73 q 544 432 546 390 q 542 512 543 474 q 534 590 541 551 q 514 666 527 629 q 479 731 501 702 q 358 792 436 792 m 358 -13 q 57 428 57 -13 q 75 631 57 562 q 116 741 93 699 q 172 814 139 782 q 358 878 244 878 q 656 428 656 878 q 541 53 656 153 q 358 -13 469 -13 z "},"1":{"ha":710,"x_min":139,"x_max":444,"o":"m 201 666 q 177 658 192 658 q 151 671 163 658 q 139 699 139 685 q 156 731 139 723 l 361 862 q 378 868 369 867 q 399 870 386 868 q 428 859 412 872 q 444 817 444 846 l 444 51 q 431 15 444 26 q 409 2 418 5 q 389 0 399 0 q 370 2 378 0 q 354 13 361 5 q 335 51 338 26 l 335 754 l 201 666 z "},"2":{"ha":710,"x_min":64,"x_max":626,"o":"m 361 789 q 314 784 335 789 q 271 771 292 779 q 207 744 235 760 q 163 728 179 728 q 136 739 147 728 q 125 765 125 750 q 136 792 125 779 q 166 817 147 805 q 209 841 185 830 q 262 859 233 852 q 370 878 322 878 q 465 865 418 878 q 549 824 512 852 q 626 674 626 766 q 378 271 626 512 q 280 173 330 225 q 192 89 230 121 l 581 89 q 615 75 603 89 q 626 43 626 61 q 615 13 626 26 q 581 0 603 0 l 139 0 q 82 16 101 0 q 64 53 64 32 q 99 128 64 96 q 180 208 134 160 q 271 300 227 255 q 361 394 316 345 q 437 492 405 444 q 514 664 514 597 q 466 757 514 723 q 361 789 425 789 z "},"3":{"ha":710,"x_min":102,"x_max":642,"o":"m 321 485 q 455 522 402 485 q 514 639 514 565 q 463 750 514 706 q 342 785 417 789 q 176 752 281 785 q 142 744 156 744 q 115 758 128 744 q 102 789 102 773 q 131 830 102 817 q 338 878 236 876 q 541 819 463 878 q 627 642 627 757 q 578 514 627 568 q 457 447 532 465 l 457 447 q 591 370 540 431 q 642 237 642 311 q 616 117 642 163 q 551 43 591 72 q 350 -13 474 -13 q 201 13 275 -13 q 130 45 148 29 q 112 77 112 62 q 125 106 112 93 q 153 120 139 120 q 177 115 168 120 q 207 105 187 110 q 249 91 227 99 q 345 77 297 77 q 425 86 393 77 q 479 115 457 96 q 530 225 527 156 q 469 358 530 307 q 330 399 417 402 l 284 399 q 255 413 265 399 q 244 444 244 426 q 254 472 244 460 q 284 485 263 484 l 321 485 z "},"4":{"ha":710,"x_min":24,"x_max":674,"o":"m 378 821 q 465 872 409 872 q 533 829 514 872 q 541 795 540 814 l 541 273 l 635 273 q 664 261 655 273 q 674 233 674 249 q 664 204 674 216 q 635 192 655 192 l 540 192 l 540 48 q 527 16 540 24 q 485 0 511 0 q 441 26 455 0 q 434 48 436 35 l 434 192 l 81 192 q 39 209 54 192 q 24 244 24 227 q 34 291 24 271 l 378 821 m 118 273 l 434 273 l 434 771 l 118 273 z "},"5":{"ha":710,"x_min":86,"x_max":655,"o":"m 196 479 q 390 565 278 565 q 584 482 511 565 q 655 278 655 399 q 575 70 655 150 q 364 -13 493 -13 q 134 72 214 -13 q 99 125 109 101 q 86 174 86 160 q 98 200 86 188 q 125 211 110 211 q 168 182 150 211 q 354 72 214 72 q 498 131 445 72 q 543 283 543 187 q 444 465 543 417 q 376 479 412 479 q 312 472 340 479 q 265 450 284 465 q 214 402 227 426 q 153 359 188 359 q 125 371 137 359 q 112 405 112 383 l 112 824 q 163 872 112 872 l 570 872 q 602 857 591 872 q 613 827 613 843 q 602 798 613 811 q 570 785 591 785 l 198 785 l 196 479 z "},"6":{"ha":710,"x_min":54,"x_max":658,"o":"m 374 -13 q 54 399 54 -13 q 73 604 54 532 q 116 723 91 677 q 182 801 140 769 q 407 878 265 876 q 591 833 511 878 q 613 801 610 824 q 587 760 613 773 q 574 754 580 754 q 543 763 568 754 q 413 790 469 790 q 318 775 358 790 q 251 733 278 760 q 208 671 225 706 q 182 599 192 637 q 166 436 166 530 q 257 533 198 501 q 386 565 316 565 q 505 544 455 565 q 589 489 556 524 q 658 283 658 412 q 584 70 658 148 q 374 -13 508 -13 m 291 89 q 366 72 322 72 q 444 87 409 72 q 503 128 479 102 q 551 278 551 179 q 457 473 551 425 q 377 487 425 489 q 292 470 329 485 q 230 428 255 455 q 179 273 179 370 q 291 89 179 140 z "},"7":{"ha":710,"x_min":62,"x_max":637,"o":"m 313 32 q 263 0 300 0 q 214 32 225 0 q 207 51 208 42 q 211 73 206 61 l 522 781 l 109 781 q 73 795 83 781 q 62 826 62 809 q 73 857 62 843 q 109 872 83 872 l 575 872 q 623 855 608 872 q 637 817 637 838 q 627 773 637 795 l 313 32 z "},"8":{"ha":710,"x_min":53,"x_max":661,"o":"m 239 450 q 115 520 169 460 q 64 640 64 575 q 88 749 64 706 q 156 821 112 792 q 358 878 236 876 q 559 821 476 878 q 648 648 647 760 q 543 479 648 543 q 476 450 512 460 l 476 447 q 613 369 565 425 q 661 230 661 313 q 570 48 661 112 q 358 -13 485 -13 q 144 48 227 -13 q 77 125 102 80 q 53 220 53 169 q 65 305 53 271 q 102 364 77 338 q 239 447 166 431 l 239 450 m 169 648 q 184 583 169 610 q 222 536 198 556 q 281 508 246 517 q 357 498 316 498 q 431 508 398 498 q 492 536 465 517 q 543 649 543 575 q 485 761 543 723 q 358 798 434 798 q 230 761 283 798 q 169 648 169 723 m 163 235 q 180 163 163 195 q 220 110 196 131 q 358 72 273 72 q 492 110 437 72 q 551 233 551 153 q 492 358 551 313 q 358 405 426 405 q 220 358 284 405 q 163 235 163 311 z "},"9":{"ha":710,"x_min":54,"x_max":658,"o":"m 549 444 l 546 444 q 393 326 504 348 q 311 316 359 316 q 211 337 262 316 q 125 393 160 358 q 73 479 91 428 q 54 591 54 530 q 73 704 54 651 q 129 795 93 757 q 340 878 211 876 q 632 675 562 878 q 658 508 658 594 q 653 369 658 421 q 635 260 648 316 q 597 153 623 204 q 533 67 572 102 q 307 -13 453 -13 q 120 32 201 -13 q 102 62 101 42 q 128 110 102 96 q 140 113 134 115 q 172 102 147 112 q 300 77 236 77 q 401 93 364 77 q 465 136 437 110 q 507 201 492 163 q 532 283 522 239 q 549 444 549 354 m 348 792 q 269 777 303 792 q 214 738 235 763 q 163 597 166 685 q 255 409 163 457 q 337 393 291 393 q 420 409 383 393 q 484 450 457 425 q 533 600 533 508 q 482 734 533 683 q 348 792 428 792 z "}," ":{"ha":321,"x_min":0,"x_max":0,"o":""},"!":{"ha":481,"x_min":172,"x_max":303,"o":"m 239 110 q 284 99 273 110 q 303 59 303 73 q 300 34 303 45 q 287 16 297 24 q 239 0 268 0 q 196 13 208 0 q 172 49 172 32 q 177 75 172 67 q 188 93 182 83 q 239 110 206 110 m 177 856 q 196 891 177 878 q 235 904 214 904 q 274 891 255 904 q 292 856 292 878 l 275 268 q 261 231 273 244 q 235 217 249 217 q 208 230 220 217 q 196 268 196 243 l 177 856 z "},"\"":{"ha":383,"x_min":61,"x_max":321,"o":"m 223 859 l 223 865 q 239 894 223 884 q 273 904 254 904 q 307 894 292 904 q 321 865 321 884 l 321 859 l 307 647 q 294 617 303 627 q 273 607 284 607 q 251 617 262 607 q 239 647 239 627 l 223 859 m 61 859 l 61 865 q 76 894 61 884 q 110 904 91 904 q 144 894 129 904 q 160 865 160 884 l 160 859 l 140 647 q 129 617 139 627 q 110 607 120 607 q 88 617 99 607 q 77 647 77 627 l 61 859 z "},"#":{"ha":710,"x_min":45,"x_max":670,"o":"m 547 891 q 554 891 547 891 q 575 881 562 891 q 587 859 587 872 l 587 843 l 551 607 l 629 607 q 659 594 648 607 q 670 565 670 581 q 659 538 670 549 q 629 527 648 527 l 541 527 l 514 359 l 594 359 q 624 347 613 359 q 635 319 635 335 q 626 292 635 303 q 594 281 616 281 l 503 281 l 463 5 q 448 -23 460 -14 q 421 -32 436 -32 q 393 -21 405 -32 q 380 10 380 -10 l 380 13 q 383 16 380 14 l 418 281 l 255 281 l 217 5 q 202 -23 216 -14 q 173 -32 188 -32 q 146 -21 158 -32 q 134 10 134 -10 l 134 13 q 134 16 134 14 l 176 281 l 83 281 q 54 292 64 281 q 45 319 45 303 q 53 347 45 335 q 83 359 62 359 l 185 359 l 208 527 l 118 527 q 88 539 99 527 q 77 568 77 551 q 88 595 77 584 q 118 607 99 607 l 220 607 l 255 852 q 271 881 259 872 q 300 891 284 891 q 328 881 316 891 q 340 859 340 872 l 340 843 l 303 607 l 466 607 l 503 852 q 518 881 504 872 q 547 891 532 891 m 268 359 l 431 359 l 455 527 l 292 527 l 268 359 z "},"$":{"ha":776,"x_min":54,"x_max":677,"o":"m 322 -24 q 110 16 244 -24 q 73 62 73 32 q 83 91 73 80 q 106 102 93 102 q 135 97 120 102 q 173 84 150 91 q 220 72 196 77 q 333 61 273 61 q 431 70 393 61 q 498 99 469 80 q 565 208 565 140 q 493 321 565 281 q 378 370 444 350 q 270 404 313 390 q 188 437 227 418 q 120 479 148 455 q 54 635 54 540 q 134 792 54 731 q 322 859 206 852 l 322 936 q 334 962 322 953 q 357 971 345 971 q 379 962 369 971 q 390 936 390 953 l 390 859 q 591 824 517 852 q 626 781 626 811 q 616 753 626 763 q 592 742 607 742 q 564 746 578 742 q 521 756 549 750 q 469 766 493 761 q 374 774 415 776 q 297 766 332 773 q 233 744 262 760 q 168 645 166 712 q 329 485 168 540 q 421 458 374 473 q 516 425 469 444 q 599 378 562 405 q 677 220 677 319 q 591 48 677 115 q 390 -24 511 -16 l 390 -109 q 379 -133 390 -125 q 355 -140 369 -140 q 332 -133 342 -140 q 322 -109 322 -125 l 322 -24 z "},"%":{"ha":1256,"x_min":137,"x_max":1121,"o":"m 398 779 q 340 792 374 792 q 284 777 307 792 q 246 738 262 763 q 217 623 220 693 q 283 465 217 511 q 342 450 307 450 q 399 466 377 450 q 436 504 421 482 q 463 623 463 551 q 398 779 463 734 m 817 852 q 848 876 830 876 q 876 867 865 876 q 886 844 886 857 q 878 821 886 830 l 398 -26 q 370 -43 388 -43 q 341 -34 351 -43 q 330 -14 330 -24 q 335 5 330 -3 l 817 852 m 342 857 q 431 837 393 857 q 493 785 469 817 q 543 623 543 723 q 492 457 543 524 q 340 390 431 388 q 188 457 244 390 q 137 623 137 522 q 188 789 137 722 q 342 857 246 857 m 916 447 q 1007 428 967 447 q 1073 377 1047 409 q 1121 216 1121 311 q 1068 53 1121 118 q 916 -19 1012 -16 q 766 51 821 -19 q 714 216 714 115 q 766 378 714 313 q 916 447 824 447 m 974 370 q 916 386 951 386 q 859 372 881 386 q 821 332 837 358 q 795 216 795 287 q 859 61 795 101 q 918 44 884 43 q 974 59 951 45 q 1011 99 996 73 q 1039 216 1038 144 q 974 370 1039 330 z "},"&":{"ha":921,"x_min":62,"x_max":857,"o":"m 677 112 q 399 -16 560 -19 q 163 53 255 -16 q 62 246 62 128 q 208 473 62 374 q 291 527 249 498 q 206 627 227 599 q 167 744 166 693 q 186 827 168 795 q 234 880 204 859 q 302 912 263 900 q 381 923 340 923 q 460 912 421 923 q 530 881 498 900 q 599 757 599 837 q 493 565 599 655 q 431 520 463 541 l 680 254 q 734 465 715 330 q 742 531 741 503 q 757 569 742 559 q 783 580 771 580 q 803 576 795 580 q 819 565 811 572 q 837 541 837 552 l 837 527 q 747 187 817 300 l 843 81 q 856 51 856 64 q 852 29 857 38 q 840 13 848 19 q 789 0 817 -14 q 769 13 779 5 l 677 112 m 351 463 q 192 319 239 393 q 172 254 172 291 q 192 180 172 217 q 243 118 211 144 q 396 67 303 67 q 572 129 493 67 q 619 176 597 148 l 351 463 m 307 818 q 300 813 307 818 q 283 792 292 808 q 275 752 275 776 q 283 704 275 728 q 307 658 292 680 q 369 580 338 613 q 411 617 388 599 q 450 656 434 635 q 492 752 492 704 q 425 833 492 814 q 385 838 405 838 q 343 833 364 838 q 307 818 322 829 z "},"'":{"ha":354,"x_min":128,"x_max":227,"o":"m 128 859 l 128 865 q 144 894 128 884 q 178 904 160 904 q 212 894 196 904 q 227 865 227 884 l 227 859 l 211 647 q 198 617 208 627 q 178 607 188 607 q 157 617 168 607 q 147 647 147 627 l 128 859 z "},"(":{"ha":359,"x_min":96,"x_max":297,"o":"m 295 -101 q 296 -106 295 -101 q 285 -123 297 -112 q 254 -134 273 -134 q 220 -105 235 -134 q 105 262 128 120 q 96 386 96 322 q 220 884 96 589 q 259 910 233 910 q 285 900 273 910 q 297 879 297 891 q 294 857 297 867 q 198 386 198 603 q 292 -81 198 176 q 295 -101 294 -89 z "},")":{"ha":359,"x_min":64,"x_max":268,"o":"m 140 -105 q 109 -133 129 -131 q 77 -123 89 -134 q 64 -101 64 -112 q 70 -81 64 -91 q 163 386 163 168 q 70 857 163 599 q 64 877 64 867 q 77 899 64 888 q 102 910 89 910 q 140 884 129 910 q 225 651 204 728 q 268 386 265 503 q 188 14 268 217 q 140 -105 166 -45 z "},"*":{"ha":672,"x_min":89,"x_max":587,"o":"m 399 694 l 549 702 q 576 691 565 702 q 587 663 587 680 q 576 636 587 647 q 549 626 565 626 l 398 629 l 474 508 q 479 486 479 498 q 469 462 479 474 q 445 450 460 450 q 407 469 421 450 l 335 599 l 263 469 q 239 453 255 455 q 215 453 223 450 q 204 463 206 457 q 193 486 195 474 q 198 508 192 498 l 275 629 l 128 626 q 100 637 110 626 q 89 663 89 648 q 100 690 89 677 q 128 702 110 702 l 273 694 l 196 821 q 192 841 192 830 q 203 864 192 852 q 227 876 214 876 q 263 857 254 876 l 335 725 l 409 857 q 441 876 421 876 q 471 864 460 876 q 482 841 482 852 q 476 821 482 829 l 399 694 z "},"+":{"ha":816,"x_min":96,"x_max":723,"o":"m 450 342 l 680 342 q 710 331 696 342 q 723 304 723 321 q 710 275 723 287 q 680 262 696 262 l 450 262 l 450 43 q 438 14 450 26 q 408 3 426 3 q 378 14 390 3 q 367 43 367 26 l 367 262 l 139 262 q 109 273 121 262 q 96 303 96 284 q 108 331 96 321 q 139 342 120 342 l 367 342 l 367 565 q 378 594 367 581 q 408 607 390 607 q 438 594 426 607 q 450 565 450 581 l 450 342 z "},",":{"ha":354,"x_min":67,"x_max":244,"o":"m 153 -147 l 67 -147 l 125 112 l 244 112 l 153 -147 z "},"-":{"ha":361,"x_min":19,"x_max":345,"o":"m 62 278 q 31 291 43 278 q 19 322 19 303 q 32 352 19 340 q 62 364 45 364 l 300 364 q 332 352 319 364 q 345 322 345 340 q 333 291 345 303 q 300 278 321 278 l 62 278 z "},".":{"ha":354,"x_min":112,"x_max":243,"o":"m 116 37 q 114 42 116 37 q 112 59 112 48 q 116 81 112 70 q 129 100 120 91 q 151 113 139 109 q 179 118 163 118 q 206 113 195 118 q 226 100 217 109 q 239 81 235 91 q 243 59 243 70 q 239 37 243 48 q 226 18 235 26 q 206 5 217 10 q 179 0 195 0 q 151 5 163 0 q 129 18 139 10 q 116 37 120 26 z "},"/":{"ha":356,"x_min":-13,"x_max":370,"o":"m 70 -77 q 32 -105 57 -109 q 1 -96 14 -105 q -13 -74 -13 -86 q -10 -51 -13 -62 l 284 843 q 329 872 294 875 q 358 862 345 872 q 370 840 370 852 q 369 817 370 827 l 70 -77 z "},":":{"ha":354,"x_min":112,"x_max":244,"o":"m 112 551 q 148 607 112 591 q 177 610 160 610 q 206 605 195 610 q 227 591 217 600 q 243 551 244 575 q 206 498 243 512 q 179 492 195 493 q 151 496 163 492 q 129 508 139 501 q 112 551 112 527 m 116 37 q 114 42 116 37 q 112 59 112 48 q 116 81 112 70 q 129 100 120 91 q 151 113 139 109 q 179 118 163 118 q 206 113 195 118 q 226 100 217 109 q 239 81 235 91 q 243 59 243 70 q 239 37 243 48 q 226 18 235 26 q 206 5 217 10 q 179 0 195 0 q 151 5 163 0 q 129 18 139 10 q 116 37 120 26 z "},";":{"ha":354,"x_min":89,"x_max":265,"o":"m 133 541 q 130 547 133 541 q 128 565 128 552 q 133 587 128 578 q 147 607 137 597 q 195 623 163 623 q 255 587 243 623 q 262 564 262 575 q 257 541 262 552 q 243 522 252 530 q 195 503 220 503 q 152 516 168 503 q 133 541 137 530 m 176 -147 l 89 -147 l 147 112 l 265 112 l 176 -147 z "},"<":{"ha":816,"x_min":83,"x_max":722,"o":"m 120 255 q 83 302 83 273 q 121 350 83 335 l 664 580 q 683 583 670 581 q 709 572 696 584 q 722 546 722 559 q 694 508 722 520 l 206 302 l 696 83 q 722 53 722 72 q 710 22 722 34 q 686 10 699 10 q 666 13 674 10 l 120 255 z "},"=":{"ha":816,"x_min":96,"x_max":722,"o":"m 139 140 q 109 154 121 140 q 96 183 96 168 q 108 212 96 198 q 139 225 120 225 l 680 225 q 709 212 696 225 q 722 183 722 198 q 709 154 722 168 q 680 140 696 140 l 139 140 m 139 383 q 109 394 121 383 q 96 423 96 405 q 108 453 96 441 q 139 465 120 465 l 680 465 q 709 453 696 465 q 722 424 722 441 q 709 395 722 407 q 680 383 696 383 l 139 383 z "},">":{"ha":816,"x_min":96,"x_max":733,"o":"m 696 350 q 733 302 733 332 q 694 254 733 271 l 153 24 q 132 21 144 22 q 109 32 120 19 q 99 61 99 45 q 121 96 99 86 l 610 302 l 120 520 q 96 551 96 532 q 107 582 96 570 q 131 594 118 594 q 153 591 144 594 l 696 350 z "},"?":{"ha":627,"x_min":89,"x_max":543,"o":"m 386 800 q 332 823 361 817 q 251 829 303 829 q 164 820 198 829 q 120 811 129 811 q 100 825 110 811 q 89 857 89 840 q 125 904 89 896 q 270 923 192 923 q 392 909 348 923 q 469 867 436 896 q 543 694 543 805 q 465 517 543 599 q 415 469 441 493 q 364 418 386 437 q 330 386 342 399 q 303 321 303 354 l 303 262 q 289 228 303 239 q 255 217 275 217 q 225 226 235 217 q 211 251 216 235 q 207 294 206 268 q 209 349 208 319 q 227 406 211 378 q 269 459 244 434 q 322 508 294 484 q 377 560 351 533 q 434 686 434 627 q 386 800 434 761 m 200 30 q 197 36 200 30 q 195 53 195 42 q 200 75 195 64 q 211 96 204 86 q 259 112 230 112 q 302 99 287 112 q 321 75 316 86 q 326 53 326 64 q 321 30 326 42 q 307 13 316 19 q 259 -6 284 -6 q 217 6 230 -6 q 200 30 204 19 z "},"@":{"ha":998,"x_min":35,"x_max":945,"o":"m 354 489 q 348 473 354 489 q 335 427 342 457 q 329 373 329 398 q 334 326 329 348 q 354 287 340 303 q 425 254 380 254 q 504 273 473 254 q 584 364 565 311 l 635 514 q 603 619 655 575 q 540 646 575 647 q 477 632 504 645 q 428 599 450 619 q 386 549 405 578 q 354 489 367 520 m 645 275 q 679 243 645 244 q 747 268 714 243 q 808 335 781 294 q 865 521 865 426 q 838 675 865 616 q 766 776 811 734 q 546 852 683 852 q 345 805 444 852 q 185 666 246 757 q 118 459 118 570 q 148 273 118 348 q 233 148 179 198 q 503 51 335 51 q 664 73 581 51 q 682 77 670 77 q 703 67 694 77 q 712 45 712 57 q 690 16 712 22 q 492 -15 587 -14 q 311 16 396 -16 q 168 110 227 48 q 35 450 35 236 q 112 706 35 594 q 303 867 182 809 q 543 923 417 923 q 821 829 714 923 q 945 532 945 718 q 900 350 945 437 q 723 185 838 230 q 667 171 690 172 q 627 174 645 169 q 597 187 610 179 q 556 235 565 204 q 485 188 527 204 q 405 172 444 172 q 275 227 326 172 q 227 361 230 281 q 311 608 227 495 q 445 714 367 683 q 519 730 485 731 q 573 723 552 728 q 613 709 594 718 q 670 648 651 690 l 677 666 q 696 691 683 683 q 723 699 709 699 q 749 690 738 699 q 760 668 760 680 q 760 648 760 656 l 658 340 q 645 275 645 302 z "},"A":{"ha":848,"x_min":29,"x_max":819,"o":"m 817 67 q 819 48 819 57 q 814 29 819 38 q 801 14 809 19 q 766 0 785 0 q 715 34 728 0 l 637 227 l 206 227 l 129 34 q 85 0 118 0 q 34 29 51 0 q 29 46 29 38 q 34 67 29 54 l 322 776 q 396 867 354 856 q 425 872 407 868 q 473 857 457 872 q 524 776 498 838 l 817 67 m 236 311 l 608 311 l 421 781 l 236 311 z "},"B":{"ha":843,"x_min":120,"x_max":754,"o":"m 120 819 q 131 849 120 838 q 172 872 150 868 l 453 872 q 645 809 570 872 q 718 651 718 750 q 674 527 718 580 q 551 455 626 473 l 551 453 q 741 316 694 428 q 754 236 754 281 q 739 148 754 192 q 690 73 725 105 q 465 0 610 0 l 172 0 q 139 13 153 0 q 120 53 120 29 l 120 819 m 225 83 l 409 83 q 580 118 530 83 q 642 246 642 156 q 476 405 642 386 q 364 409 426 409 l 225 409 l 225 83 m 608 642 q 405 785 608 789 l 225 785 l 225 489 l 407 489 q 591 570 541 489 q 608 642 608 599 z "},"C":{"ha":843,"x_min":72,"x_max":734,"o":"m 72 431 q 96 599 72 514 q 169 744 120 683 q 469 878 275 878 q 686 829 581 878 q 714 792 714 817 q 675 742 714 744 q 661 744 667 742 q 486 782 551 782 q 378 768 421 782 q 303 728 335 754 q 249 669 271 702 q 214 594 227 635 q 187 431 187 517 q 249 195 187 291 q 476 81 322 81 q 677 137 581 81 q 702 140 690 140 q 724 129 714 140 q 734 101 734 118 q 722 68 734 83 q 687 41 709 53 q 639 19 666 29 q 584 3 613 10 q 469 -13 524 -13 q 169 120 273 -13 q 72 431 72 239 z "},"D":{"ha":910,"x_min":109,"x_max":838,"o":"m 163 0 q 112 32 129 0 q 110 53 109 42 l 110 817 q 140 867 110 849 q 163 872 150 872 l 370 872 q 808 623 714 872 q 837 434 838 541 q 715 110 837 220 q 374 0 594 0 l 163 0 m 217 83 l 386 83 q 702 291 642 83 q 722 439 722 354 q 696 591 722 524 q 623 702 670 658 q 354 785 532 785 l 217 785 l 217 83 z "},"E":{"ha":763,"x_min":121,"x_max":690,"o":"m 176 0 q 144 13 156 0 q 121 53 121 32 l 121 817 q 153 865 121 848 q 172 872 163 868 l 627 872 q 663 857 651 872 q 674 826 674 843 q 661 795 674 809 q 627 781 648 781 l 227 781 l 227 492 l 608 492 q 643 478 632 492 q 655 447 655 465 q 642 418 655 431 q 608 405 629 405 l 227 405 l 227 89 l 645 89 q 678 75 667 89 q 690 43 690 61 q 678 13 690 26 q 645 0 666 0 l 176 0 z "},"F":{"ha":699,"x_min":112,"x_max":639,"o":"m 112 819 q 128 857 112 843 q 166 872 144 872 l 594 872 q 628 857 618 872 q 639 826 639 843 q 628 795 639 809 q 594 781 618 781 l 223 781 l 223 498 l 580 498 q 615 484 603 498 q 626 453 626 469 q 613 422 626 436 q 580 409 600 409 l 223 409 l 223 53 q 211 16 223 29 q 131 13 169 -14 q 112 53 115 24 l 112 819 z "},"G":{"ha":912,"x_min":73,"x_max":808,"o":"m 263 172 q 281 148 263 172 q 361 99 300 125 q 514 73 421 73 q 699 102 607 73 l 699 367 l 527 367 q 496 380 508 367 q 485 407 485 393 q 495 436 485 425 q 527 447 504 447 l 761 447 q 808 402 808 447 l 808 83 q 766 32 808 38 q 512 -13 619 -13 q 326 14 405 -13 q 192 96 246 42 q 73 434 73 214 q 182 742 73 618 q 504 878 294 876 q 750 833 642 878 q 773 801 773 821 q 762 766 773 781 q 734 752 752 752 l 728 752 q 710 756 725 752 q 669 765 696 760 q 613 776 642 771 q 511 785 549 785 q 263 677 348 785 q 208 561 225 627 q 192 425 192 495 q 208 287 192 354 q 263 172 225 220 z "},"H":{"ha":910,"x_min":118,"x_max":795,"o":"m 685 819 q 722 867 685 856 q 746 870 731 868 q 777 859 760 872 q 795 819 795 846 l 795 53 q 781 16 795 29 q 740 0 761 0 q 702 13 718 0 q 685 53 685 26 l 685 407 l 227 407 l 227 53 q 214 16 227 29 q 172 0 195 0 q 134 13 150 0 q 118 53 118 26 l 118 819 q 153 867 118 856 q 177 870 163 868 q 209 859 192 872 q 227 819 227 846 l 227 498 l 685 498 l 685 819 z "},"I":{"ha":359,"x_min":128,"x_max":235,"o":"m 128 819 q 160 867 128 852 q 187 870 169 868 q 220 859 204 872 q 235 819 235 846 l 235 53 q 201 3 235 14 q 176 0 192 0 q 144 13 160 0 q 128 53 128 26 l 128 819 z "},"J":{"ha":643,"x_min":35,"x_max":541,"o":"m 271 73 q 434 278 431 73 l 434 821 q 466 867 434 859 q 485 872 476 868 q 536 843 522 872 q 541 821 541 833 l 541 268 q 457 53 541 128 q 271 -13 388 -13 q 77 77 150 -13 q 44 134 53 109 q 35 176 35 160 q 49 204 35 192 q 77 216 62 216 q 120 192 105 216 q 271 73 160 73 z "},"K":{"ha":785,"x_min":128,"x_max":741,"o":"m 233 51 q 220 16 233 26 q 177 0 201 0 q 131 29 144 0 q 128 51 128 38 l 128 819 q 144 859 128 846 q 174 872 160 872 q 198 868 188 872 q 216 857 208 865 q 233 819 233 843 l 233 485 l 600 852 q 638 872 618 872 q 672 859 658 872 q 686 828 686 846 q 677 795 686 809 l 348 476 l 709 83 q 706 14 741 43 q 667 0 686 0 q 627 22 642 0 l 233 447 l 233 51 z "},"L":{"ha":699,"x_min":120,"x_max":667,"o":"m 176 0 q 125 32 139 0 q 120 53 120 42 l 120 819 q 153 867 120 856 q 179 870 163 868 q 211 859 195 872 q 227 819 227 846 l 227 89 l 623 89 q 657 76 647 89 q 667 45 667 62 q 656 14 667 29 q 623 0 645 0 l 176 0 z "},"M":{"ha":1193,"x_min":118,"x_max":1078,"o":"m 599 140 l 888 779 q 926 848 913 833 q 981 872 953 872 q 1024 865 1009 872 q 1050 848 1039 859 q 1078 776 1078 821 l 1078 48 q 1062 12 1078 24 q 1028 0 1047 0 q 995 12 1009 0 q 980 48 980 24 l 980 763 l 664 67 q 597 19 645 19 q 532 67 556 19 l 217 760 l 217 48 q 202 12 217 24 q 168 0 187 0 q 133 12 148 0 q 118 48 118 24 l 118 776 q 169 865 118 846 q 205 870 187 868 q 239 867 223 872 q 265 852 254 862 q 313 779 284 837 l 597 140 l 599 140 z "},"N":{"ha":915,"x_min":110,"x_max":809,"o":"m 110 800 q 131 849 110 830 q 172 872 150 868 q 243 837 217 872 l 706 139 l 706 821 q 715 856 706 846 q 750 872 733 872 q 776 868 766 872 q 792 859 785 865 q 808 821 809 846 l 808 72 q 761 5 808 24 q 733 0 750 0 q 666 35 694 0 l 214 723 l 214 48 q 201 16 214 26 q 161 0 182 0 q 125 12 140 0 q 110 48 110 24 l 110 800 z "},"O":{"ha":972,"x_min":77,"x_max":896,"o":"m 212 561 q 204 528 212 561 q 196 432 196 495 q 212 302 196 369 q 263 184 227 235 q 354 104 300 134 q 487 73 409 73 q 621 104 565 73 q 712 184 677 134 q 764 302 747 235 q 781 432 781 369 q 764 561 781 495 q 712 678 747 627 q 621 758 677 728 q 487 789 565 789 q 354 758 409 789 q 263 678 300 728 q 212 561 227 627 m 77 434 q 104 610 77 527 q 185 752 131 693 q 485 878 294 876 q 790 752 680 878 q 869 610 843 693 q 896 434 896 527 q 869 255 896 340 q 790 112 843 169 q 485 -13 680 -13 q 185 112 292 -13 q 104 256 131 172 q 77 434 77 340 z "},"P":{"ha":777,"x_min":120,"x_max":738,"o":"m 227 380 l 227 53 q 192 3 227 14 q 168 0 182 0 q 136 13 153 0 q 120 53 120 26 l 120 817 q 153 867 120 849 q 176 872 163 872 l 393 872 q 723 706 664 872 q 738 624 738 667 q 725 544 738 581 q 688 479 712 508 q 631 433 664 450 q 559 402 597 415 q 388 380 484 380 l 227 380 m 407 466 q 560 501 511 466 q 626 627 626 543 q 560 750 626 709 q 409 785 511 782 l 227 785 l 227 466 l 407 466 z "},"Q":{"ha":972,"x_min":77,"x_max":929,"o":"m 599 0 q 485 -13 541 -13 q 185 110 291 -13 q 104 252 131 169 q 77 431 77 335 q 104 610 77 527 q 185 752 131 693 q 485 878 294 876 q 790 752 680 878 q 896 428 896 632 q 856 239 896 330 q 747 86 821 163 l 886 86 q 918 73 907 86 q 929 43 929 61 q 918 13 929 26 q 886 0 907 0 l 599 0 m 263 678 q 245 653 263 678 q 212 560 227 627 q 196 430 196 493 q 212 301 196 367 q 263 184 227 235 q 354 104 300 134 q 487 73 409 73 q 621 104 565 73 q 712 184 677 134 q 764 301 747 235 q 781 430 781 367 q 764 560 781 493 q 712 678 747 627 q 621 758 677 728 q 487 789 565 789 q 354 758 409 789 q 263 678 300 728 z "},"R":{"ha":843,"x_min":121,"x_max":747,"o":"m 121 817 q 156 867 121 849 q 177 872 166 872 l 437 872 q 722 760 648 872 q 747 643 747 714 q 701 522 747 572 q 568 455 655 473 l 568 450 q 686 388 651 436 q 721 281 714 348 q 733 176 728 214 q 742 53 738 120 q 726 13 742 26 q 688 0 709 0 q 651 12 667 0 q 632 48 635 24 q 621 178 626 121 q 610 274 616 235 q 592 338 603 313 q 562 378 581 364 q 436 405 530 402 l 230 405 l 230 53 q 196 3 230 14 q 172 0 187 0 q 139 13 156 0 q 121 53 121 26 l 121 817 m 390 489 q 594 536 541 489 q 635 637 632 570 q 565 761 635 731 q 489 783 527 781 q 428 785 450 785 l 230 785 l 230 489 l 390 489 z "},"S":{"ha":776,"x_min":73,"x_max":709,"o":"m 198 651 q 220 588 198 618 q 278 540 243 559 q 358 506 313 520 q 452 476 402 492 q 549 441 501 460 q 632 393 597 421 q 709 223 709 330 q 685 127 709 172 q 618 51 661 81 q 383 -13 530 -13 q 139 57 244 -13 q 73 128 73 99 q 99 169 73 153 q 115 176 105 176 q 136 168 125 176 q 162 148 147 160 q 200 124 177 137 q 249 99 223 110 q 374 75 313 73 q 471 85 434 77 q 536 112 508 93 q 599 217 597 153 q 520 340 599 297 q 441 374 485 359 q 349 404 398 390 q 252 439 300 418 q 168 489 204 460 q 89 648 89 551 q 114 744 89 699 q 182 817 139 789 q 390 878 265 876 q 680 761 570 878 q 686 740 686 752 q 686 720 686 728 q 677 704 685 712 q 647 690 666 690 q 608 714 629 690 q 524 763 556 752 q 399 789 460 789 q 265 757 321 789 q 198 651 198 718 z "},"T":{"ha":704,"x_min":16,"x_max":690,"o":"m 62 781 q 27 795 38 781 q 16 826 16 809 q 27 857 16 843 q 62 872 38 872 l 645 872 q 678 857 667 872 q 690 826 690 843 q 678 795 690 809 q 645 781 666 781 l 409 781 l 409 53 q 377 3 409 16 q 351 0 367 0 q 318 13 335 0 q 300 53 300 26 l 300 781 l 62 781 z "},"U":{"ha":907,"x_min":115,"x_max":795,"o":"m 115 819 q 128 852 115 843 q 170 872 148 872 q 208 859 192 872 q 225 819 225 846 l 225 303 q 297 131 225 195 q 455 77 361 77 q 613 131 551 77 q 685 303 685 192 l 685 819 q 699 852 685 843 q 740 872 718 872 q 778 859 761 872 q 795 819 795 846 l 795 303 q 693 62 795 150 q 455 -13 600 -14 q 217 62 311 -13 q 115 303 115 150 l 115 819 z "},"V":{"ha":785,"x_min":26,"x_max":760,"o":"m 398 93 l 398 93 l 658 833 q 709 872 675 872 q 741 862 728 872 q 760 824 760 846 l 760 817 q 757 808 760 814 l 484 64 q 393 0 465 0 q 307 64 329 0 l 29 805 q 26 822 26 814 q 30 840 26 830 q 43 857 35 849 q 80 872 61 872 q 131 837 120 872 l 398 93 z "},"W":{"ha":1252,"x_min":19,"x_max":1236,"o":"m 626 766 l 402 70 q 366 18 393 35 q 310 0 338 0 q 257 17 281 0 q 223 70 233 34 l 26 805 q 26 835 19 821 q 43 857 34 849 q 81 872 62 872 q 128 837 120 872 l 316 93 l 549 808 q 580 855 559 838 q 627 872 600 872 q 673 855 651 872 q 706 808 694 838 l 945 93 l 1135 833 q 1181 872 1145 872 q 1231 843 1212 872 q 1232 829 1236 833 q 1231 809 1232 817 l 1030 70 q 972 5 1019 19 q 938 0 961 0 q 890 17 915 0 q 852 70 865 34 l 626 766 z "},"X":{"ha":776,"x_min":42,"x_max":733,"o":"m 134 24 q 91 0 118 0 q 45 29 61 0 q 42 49 42 38 q 53 73 42 61 l 322 447 l 70 795 q 61 819 61 808 q 66 839 61 830 q 81 856 72 848 q 115 872 99 872 q 168 846 148 872 l 396 514 l 635 846 q 677 872 655 872 q 723 843 709 872 q 728 829 728 833 q 715 800 728 811 l 455 447 l 723 77 q 733 53 733 64 q 728 33 733 42 q 714 16 723 24 q 671 0 694 0 q 629 24 648 0 l 383 378 l 134 24 z "},"Y":{"ha":777,"x_min":45,"x_max":741,"o":"m 445 370 l 445 53 q 412 3 445 16 q 386 0 402 0 q 353 13 370 0 q 335 53 335 26 l 335 369 l 53 798 q 45 819 45 808 q 49 840 45 830 q 64 857 54 849 q 102 872 83 872 q 153 843 137 872 l 398 455 l 399 455 l 645 846 q 690 872 661 872 q 734 846 722 872 q 741 830 741 838 q 733 808 741 821 l 445 370 z "},"Z":{"ha":709,"x_min":43,"x_max":670,"o":"m 110 0 q 62 13 80 0 q 43 53 43 32 q 54 93 43 73 l 533 781 l 93 781 q 60 795 72 781 q 48 826 48 809 q 59 857 48 843 q 93 872 70 872 l 613 872 q 655 857 639 872 q 670 827 670 843 q 656 779 670 798 l 176 89 l 619 89 q 655 75 645 89 q 664 43 664 61 q 653 13 664 26 q 619 0 642 0 l 110 0 z "},"[":{"ha":370,"x_min":105,"x_max":307,"o":"m 268 872 q 303 833 307 872 q 294 807 303 819 q 268 795 284 795 l 206 795 l 206 -45 l 268 -45 q 297 -57 287 -45 q 307 -83 307 -70 q 295 -110 307 -99 q 268 -121 284 -121 l 156 -121 q 120 -107 134 -121 q 105 -73 105 -93 l 105 821 q 120 856 105 840 q 156 872 134 872 l 268 872 z "},"\\":{"ha":356,"x_min":-13,"x_max":370,"o":"m -10 859 q -13 881 -13 868 q 1 904 -13 894 q 29 915 14 915 q 73 886 64 915 l 369 -10 q 370 -31 370 -19 q 358 -53 370 -43 q 330 -64 345 -64 q 291 -34 297 -64 l -10 859 z "},"]":{"ha":370,"x_min":67,"x_max":268,"o":"m 268 -73 q 252 -107 268 -93 q 217 -121 236 -121 l 105 -121 q 77 -110 86 -121 q 67 -83 67 -99 q 75 -57 67 -70 q 105 -45 83 -45 l 168 -45 l 168 795 l 105 795 q 77 807 86 795 q 67 833 67 819 q 75 860 67 848 q 105 872 83 872 l 217 872 q 252 857 236 872 q 268 821 268 843 l 268 -73 z "},"^":{"ha":816,"x_min":112,"x_max":702,"o":"m 407 754 l 196 326 q 164 300 187 300 q 126 311 140 300 q 112 334 112 321 q 118 358 112 348 l 358 817 q 407 852 377 849 q 460 817 441 852 l 696 358 q 702 340 702 348 q 698 324 702 332 q 686 311 694 316 q 658 300 675 302 q 619 326 632 300 l 407 754 z "},"_":{"ha":624,"x_min":0,"x_max":626,"o":"m 34 -156 q 8 -144 16 -156 q 0 -118 0 -131 q 8 -93 0 -105 q 34 -81 16 -81 l 589 -81 q 616 -93 607 -81 q 626 -118 626 -105 q 616 -144 626 -131 q 589 -156 607 -156 l 34 -156 z "},"`":{"ha":345,"x_min":35,"x_max":294,"o":"m 51 837 q 35 860 35 848 q 40 880 35 872 q 53 896 45 888 q 83 915 70 915 q 121 900 109 915 l 287 715 q 294 698 294 709 q 288 680 294 686 q 272 674 283 674 q 246 685 262 674 l 51 837 z "},"a":{"ha":634,"x_min":43,"x_max":546,"o":"m 383 369 q 450 367 417 369 l 450 418 q 311 543 450 543 q 220 532 249 543 q 147 499 169 512 q 112 485 125 485 q 88 495 99 485 q 77 520 77 504 q 91 546 77 533 q 313 618 166 618 q 530 504 482 618 q 546 412 546 465 l 543 43 q 528 11 543 22 q 496 0 514 0 q 465 10 479 0 q 450 42 450 19 l 450 99 q 313 -5 412 16 q 244 -13 283 -13 q 168 -2 206 -13 q 102 34 131 10 q 43 168 43 83 q 383 369 43 369 m 450 297 q 391 294 425 294 q 322 293 358 294 q 255 285 287 292 q 198 263 223 278 q 140 169 144 235 q 182 89 140 118 q 273 62 214 64 q 398 109 345 62 q 450 243 445 153 l 450 297 z "},"b":{"ha":704,"x_min":83,"x_max":655,"o":"m 399 -13 q 177 105 255 -13 l 177 43 q 162 11 176 22 q 130 0 148 0 q 97 12 112 0 q 83 45 83 24 l 83 824 q 99 857 83 846 q 134 868 115 868 q 168 858 153 868 q 182 824 182 848 l 182 508 q 275 591 211 560 q 397 618 329 618 q 513 591 465 618 q 591 522 562 565 q 655 303 655 437 q 594 86 655 172 q 399 -13 524 -13 m 182 311 q 192 216 182 263 q 225 137 201 169 q 380 62 275 62 q 536 196 498 62 q 550 299 549 244 q 541 395 551 354 q 512 469 532 436 q 370 543 465 543 q 225 474 273 543 q 182 311 182 415 z "},"c":{"ha":591,"x_min":54,"x_max":540,"o":"m 54 303 q 129 524 54 436 q 342 618 211 618 q 512 572 453 618 q 530 541 530 559 q 520 513 530 524 q 498 503 511 503 q 479 508 485 503 q 351 541 418 543 q 214 476 263 541 q 158 303 158 409 q 198 139 158 206 q 351 62 246 62 q 492 102 409 62 q 530 96 514 115 q 540 69 540 86 q 519 36 540 53 q 469 10 498 19 q 334 -14 399 -14 q 216 11 268 -13 q 128 81 163 35 q 54 303 54 169 z "},"d":{"ha":706,"x_min":54,"x_max":626,"o":"m 527 101 q 310 -13 447 -13 q 115 86 185 -13 q 54 303 54 176 q 196 591 54 517 q 293 618 244 618 q 374 612 342 618 q 434 591 405 607 q 527 508 495 560 l 527 824 q 543 858 527 848 q 578 868 559 868 q 611 858 597 868 q 626 824 626 848 l 626 45 q 610 11 626 22 q 581 0 594 0 q 560 2 568 0 q 543 13 551 5 q 527 45 527 24 l 527 101 m 329 62 q 524 313 524 62 q 426 524 524 474 q 338 543 390 543 q 254 523 287 543 q 198 469 220 503 q 158 311 158 407 q 225 102 158 169 q 329 62 263 62 z "},"e":{"ha":690,"x_min":57,"x_max":635,"o":"m 635 321 q 597 284 635 287 l 160 284 q 287 73 166 121 q 364 62 321 62 q 546 128 453 62 q 594 125 575 144 q 600 105 603 115 q 589 73 600 83 q 358 -13 501 -14 q 147 72 227 -13 q 57 303 57 160 q 131 522 57 436 q 348 618 208 618 q 562 533 489 618 q 635 321 632 457 m 541 350 q 485 492 536 436 q 348 543 437 543 q 217 485 271 543 q 163 350 168 428 l 541 350 z "},"f":{"ha":423,"x_min":26,"x_max":421,"o":"m 246 533 l 246 48 q 231 12 246 24 q 201 0 216 0 q 178 2 187 0 q 163 13 169 5 q 148 48 147 24 l 148 533 l 64 533 q 35 544 45 533 q 26 570 26 556 q 35 594 26 581 q 64 607 45 607 l 148 607 l 148 674 q 236 875 148 838 q 294 886 265 886 q 398 868 345 886 q 421 837 421 859 q 413 812 421 824 q 392 800 405 800 q 371 801 378 800 q 358 805 364 801 q 318 808 340 808 q 283 799 297 808 q 259 771 268 790 q 246 626 246 741 l 246 607 l 350 607 q 379 595 369 607 q 390 570 390 584 q 379 544 390 556 q 350 533 369 533 l 246 533 z "},"g":{"ha":706,"x_min":53,"x_max":626,"o":"m 338 541 q 160 303 160 541 q 216 128 160 192 q 340 70 263 72 q 473 129 418 70 q 530 300 530 192 q 428 520 530 463 q 338 541 393 541 m 313 618 q 533 498 469 618 l 533 565 q 549 595 536 584 q 580 607 562 607 q 611 594 597 607 q 626 560 626 581 l 626 -13 q 546 -198 626 -137 q 338 -255 474 -255 q 156 -214 217 -255 q 109 -156 109 -179 q 119 -130 109 -140 q 143 -120 129 -120 q 169 -129 156 -120 q 200 -145 182 -137 q 235 -160 217 -153 q 330 -176 281 -176 q 414 -168 378 -176 q 476 -140 450 -160 q 530 -19 530 -105 l 530 120 q 383 6 484 32 q 321 0 351 0 q 118 91 188 0 q 53 300 53 172 q 118 522 53 436 q 313 618 187 618 z "},"h":{"ha":704,"x_min":96,"x_max":613,"o":"m 514 393 q 473 508 514 466 q 387 543 436 543 q 305 532 338 543 q 246 495 271 520 q 192 350 192 444 l 192 45 q 176 11 192 22 q 140 0 160 0 q 109 12 121 0 q 96 45 96 24 l 96 824 q 112 857 96 846 q 144 868 128 868 q 177 858 163 868 q 192 824 192 848 l 192 503 q 275 589 214 559 q 386 618 330 618 q 479 604 441 618 q 549 565 517 591 q 613 386 613 504 l 613 45 q 596 11 613 22 q 562 0 580 0 q 528 12 543 0 q 514 45 514 24 l 514 393 z "},"i":{"ha":287,"x_min":77,"x_max":211,"o":"m 211 817 q 193 776 211 792 q 144 760 176 760 q 94 776 112 760 q 77 817 77 792 q 94 856 77 840 q 144 872 112 872 q 194 856 177 872 q 211 817 211 840 m 96 556 q 112 593 96 580 q 140 607 128 607 q 161 603 153 607 q 177 591 169 599 q 195 556 195 580 l 195 48 q 179 12 195 24 q 144 0 163 0 q 110 12 125 0 q 96 48 96 24 l 96 556 z "},"j":{"ha":289,"x_min":-29,"x_max":214,"o":"m -3 -217 q -29 -187 -29 -216 q -21 -164 -29 -176 q 11 -153 -13 -153 q 54 -150 35 -153 q 83 -134 73 -147 q 99 -45 99 -118 l 99 556 q 113 593 99 580 q 142 607 128 607 q 166 603 156 607 q 182 591 176 599 q 196 556 196 578 l 196 -19 q 192 -117 196 -77 q 169 -182 187 -156 q 32 -227 139 -227 l 22 -227 q 6 -223 14 -227 q -3 -217 -3 -220 m 214 817 q 196 776 214 792 q 146 760 177 760 q 98 776 115 760 q 81 817 81 792 q 98 856 81 840 q 147 872 115 872 q 196 856 177 872 q 214 817 214 840 z "},"k":{"ha":603,"x_min":102,"x_max":578,"o":"m 198 326 l 198 48 q 183 12 198 24 q 149 0 168 0 q 117 12 131 0 q 102 48 102 24 l 102 821 q 117 857 102 846 q 145 868 131 868 q 168 867 160 868 q 185 857 177 865 q 198 821 198 846 l 198 359 l 474 591 q 504 607 489 607 q 536 594 522 607 q 549 570 549 581 q 536 540 549 549 l 300 342 l 568 70 q 578 47 578 61 q 574 26 578 34 q 562 13 570 19 q 530 0 546 0 q 498 16 514 0 l 198 326 z "},"l":{"ha":287,"x_min":96,"x_max":195,"o":"m 96 821 q 112 857 96 846 q 140 868 128 868 q 161 867 153 868 q 177 857 169 865 q 195 821 195 846 l 195 48 q 179 12 195 24 q 144 0 163 0 q 110 12 125 0 q 96 48 96 24 l 96 821 z "},"m":{"ha":1121,"x_min":93,"x_max":1030,"o":"m 594 492 q 814 618 670 618 q 1012 493 963 618 q 1030 386 1030 447 l 1030 45 q 1015 11 1030 22 q 982 0 999 0 q 947 12 963 0 q 932 45 932 24 l 932 393 q 891 508 932 466 q 792 543 852 543 q 627 444 670 543 q 610 354 610 407 l 610 45 q 595 11 610 22 q 562 0 580 0 q 528 12 543 0 q 512 45 512 24 l 512 393 q 473 508 512 466 q 385 543 434 543 q 303 532 335 543 q 246 495 271 520 q 192 351 195 444 l 192 45 q 176 11 192 22 q 142 0 160 0 q 109 12 125 0 q 93 45 93 24 l 93 560 q 109 594 93 581 q 139 607 125 607 q 161 603 153 607 q 176 594 169 599 q 192 562 192 581 l 192 504 q 273 589 214 559 q 396 618 326 618 q 562 549 504 618 q 594 492 581 524 z "},"n":{"ha":704,"x_min":96,"x_max":613,"o":"m 96 560 q 112 594 96 581 q 144 607 128 607 q 187 581 177 607 q 192 504 196 556 q 275 587 211 552 q 386 618 330 618 q 479 604 441 618 q 549 562 517 591 q 613 383 613 501 l 613 45 q 596 11 613 22 q 562 0 580 0 q 528 12 543 0 q 514 45 514 24 l 514 390 q 473 504 514 465 q 377 543 434 543 q 246 498 300 543 q 192 351 192 450 l 192 45 q 176 11 192 22 q 140 0 160 0 q 109 12 121 0 q 96 45 96 24 l 96 560 z "},"o":{"ha":706,"x_min":53,"x_max":656,"o":"m 53 302 q 71 417 53 359 q 128 520 89 474 q 354 618 208 618 q 581 520 501 618 q 656 303 656 428 q 581 86 656 177 q 354 -13 501 -13 q 128 86 208 -13 q 53 302 53 176 m 156 302 q 167 220 156 263 q 204 140 177 177 q 354 62 259 62 q 504 140 455 62 q 551 303 551 214 q 504 463 551 396 q 354 543 453 543 q 204 463 259 543 q 156 302 156 398 z "},"p":{"ha":706,"x_min":83,"x_max":655,"o":"m 182 503 q 399 618 244 618 q 594 520 527 618 q 655 300 655 431 q 591 81 655 166 q 398 -13 522 -14 q 225 51 292 -13 q 182 101 201 72 l 182 -187 q 166 -222 182 -211 q 134 -233 150 -233 q 99 -220 115 -233 q 83 -187 83 -208 l 83 560 q 97 595 83 584 q 139 607 112 607 q 182 503 192 607 m 221 473 q 210 457 221 473 q 190 396 198 441 q 182 303 182 351 q 193 212 182 254 q 227 134 204 169 q 374 62 278 61 q 514 139 466 62 q 551 303 551 201 q 460 520 551 465 q 373 542 426 541 q 282 524 319 543 q 221 473 244 504 z "},"q":{"ha":706,"x_min":54,"x_max":626,"o":"m 530 503 q 530 562 530 503 q 546 595 532 584 q 577 607 560 607 q 610 594 594 607 q 626 560 626 581 l 626 -185 q 610 -219 626 -208 q 575 -230 594 -230 q 541 -219 556 -230 q 527 -185 527 -208 l 527 101 q 434 14 493 45 q 312 -13 378 -13 q 197 13 246 -13 q 118 81 148 38 q 54 300 54 166 q 115 520 54 426 q 307 618 182 618 q 492 556 418 618 q 530 503 512 532 m 481 135 q 492 151 481 135 q 516 212 504 168 q 527 303 527 255 q 517 396 527 351 q 485 473 508 441 q 332 543 441 541 q 195 465 239 543 q 158 303 158 402 q 249 83 158 144 q 334 62 283 62 q 421 82 386 62 q 481 135 457 102 z "},"r":{"ha":431,"x_min":96,"x_max":407,"o":"m 192 504 q 359 618 230 618 q 395 604 383 618 q 407 576 407 591 q 395 547 407 560 q 351 533 383 533 q 287 520 319 533 q 235 484 255 508 q 192 345 192 431 l 192 45 q 176 11 192 22 q 147 0 160 0 q 126 2 134 0 q 110 13 118 5 q 96 45 96 22 l 96 559 q 110 593 96 580 q 146 607 125 607 q 180 593 168 607 q 192 559 192 580 l 192 504 z "},"s":{"ha":624,"x_min":70,"x_max":570,"o":"m 311 543 q 176 455 172 543 q 255 378 176 399 q 314 364 283 370 q 382 349 345 358 q 457 326 418 340 q 540 272 511 310 q 570 182 570 235 q 489 34 570 86 q 303 -13 415 -14 q 140 16 220 -13 q 89 46 109 29 q 70 80 70 64 q 81 105 70 96 q 105 115 91 115 q 138 107 120 115 q 185 89 156 99 q 303 62 259 62 q 375 68 348 62 q 425 86 402 73 q 473 169 473 118 q 449 226 473 206 q 390 257 426 246 q 319 276 354 268 q 249 292 284 284 q 182 311 214 300 q 128 342 150 322 q 73 450 73 380 q 148 580 73 540 q 313 618 211 618 q 479 587 417 618 q 532 527 532 560 q 521 506 532 514 q 498 498 511 498 q 462 506 474 498 q 436 522 450 514 q 402 533 421 530 q 311 543 367 543 z "},"t":{"ha":428,"x_min":29,"x_max":415,"o":"m 415 35 q 302 -13 415 -13 q 182 34 217 -13 q 140 196 144 83 l 140 532 l 70 532 q 40 544 51 532 q 29 568 29 556 q 38 594 29 581 q 70 607 48 607 l 147 607 l 153 779 q 171 809 156 798 q 201 819 185 819 q 228 809 217 819 q 239 779 239 800 l 239 607 l 350 607 q 379 594 369 607 q 390 568 390 581 q 379 542 390 552 q 350 532 369 532 l 239 532 l 239 249 q 247 106 239 131 q 273 72 255 81 q 316 62 291 62 l 378 67 q 405 56 396 67 q 415 35 415 45 z "},"u":{"ha":704,"x_min":96,"x_max":613,"o":"m 613 45 q 596 11 613 22 q 568 0 580 0 q 546 2 556 0 q 530 13 536 5 q 514 45 514 24 l 514 101 q 374 -5 476 16 q 305 -13 342 -13 q 228 0 268 -13 q 160 42 188 13 q 96 223 96 102 l 96 559 q 110 594 96 581 q 144 607 125 607 q 177 594 163 607 q 192 559 192 581 l 192 216 q 227 96 192 129 q 332 62 262 62 q 495 158 450 62 q 514 235 512 192 l 514 559 q 530 594 514 581 q 565 607 546 607 q 599 594 584 607 q 613 559 613 581 l 613 45 z "},"v":{"ha":624,"x_min":19,"x_max":597,"o":"m 402 73 q 368 18 386 35 q 316 0 350 0 q 264 17 283 0 q 233 73 246 34 l 34 543 q 48 591 19 570 q 80 607 64 603 q 125 572 115 607 l 316 112 l 501 572 q 543 607 512 603 q 591 580 575 607 q 595 561 597 570 q 591 543 594 552 l 402 73 z "},"w":{"ha":1046,"x_min":38,"x_max":1011,"o":"m 527 512 l 358 53 q 290 0 340 0 q 225 51 239 0 l 42 541 q 38 560 38 551 q 42 578 38 568 q 53 591 45 587 q 83 607 70 603 q 129 572 121 607 l 294 105 l 463 556 q 530 607 479 603 q 572 595 552 607 q 600 556 591 584 l 760 110 l 923 572 q 964 607 934 607 q 997 593 983 607 q 1011 565 1011 580 q 1009 541 1011 551 l 821 51 q 760 0 805 0 q 694 53 709 0 l 527 512 z "},"x":{"ha":627,"x_min":53,"x_max":578,"o":"m 254 311 l 77 530 q 69 554 67 540 q 73 576 70 568 q 83 591 77 584 q 121 607 101 607 q 160 584 140 607 l 321 370 l 485 587 q 517 607 498 607 q 551 593 536 607 q 565 565 565 580 q 556 541 565 551 l 378 311 l 568 73 q 578 50 578 62 q 574 29 578 38 q 562 14 570 19 q 524 0 543 0 q 485 19 504 0 l 310 252 l 131 16 q 105 0 120 0 q 67 13 81 0 q 53 40 53 26 q 61 67 53 54 l 254 311 z "},"y":{"ha":627,"x_min":29,"x_max":599,"o":"m 268 5 l 34 541 q 29 560 29 551 q 34 579 29 570 q 45 591 38 587 q 81 607 64 603 q 129 575 115 607 l 319 115 l 508 575 q 545 607 522 607 q 583 593 568 607 q 599 565 599 580 q 594 541 599 551 l 287 -204 q 243 -236 273 -236 q 211 -227 223 -236 q 192 -196 192 -211 q 196 -176 192 -182 l 268 5 z "},"z":{"ha":567,"x_min":48,"x_max":527,"o":"m 479 81 q 509 68 498 81 q 520 42 520 54 q 511 12 520 24 q 479 0 501 0 l 101 0 q 62 13 77 0 q 48 42 48 26 q 61 83 48 67 l 405 524 l 96 524 q 65 536 77 524 q 54 565 54 549 q 64 594 54 581 q 96 607 73 607 l 469 607 q 511 593 495 607 q 527 565 527 580 q 512 520 527 541 l 172 81 l 479 81 z "},"{":{"ha":370,"x_min":10,"x_max":361,"o":"m 239 43 q 291 -48 239 -48 l 329 -48 q 353 -61 345 -48 q 361 -88 361 -73 q 353 -115 361 -102 q 329 -128 345 -128 l 255 -128 q 176 -89 211 -128 q 139 13 139 -48 l 139 195 q 125 294 139 268 q 96 330 112 319 q 56 343 80 342 q 21 358 32 345 q 10 386 10 370 q 21 415 10 402 q 56 429 32 428 q 96 443 80 431 q 125 474 112 455 q 139 580 140 504 l 139 763 q 176 865 139 824 q 255 904 211 904 l 329 904 q 353 891 345 904 q 361 864 361 878 q 353 838 361 849 q 329 827 345 827 l 291 827 q 239 734 239 827 l 239 559 q 201 434 239 484 q 172 404 187 415 q 150 386 158 393 q 227 291 201 361 q 239 217 239 259 l 239 43 z "},"|":{"ha":275,"x_min":96,"x_max":182,"o":"m 96 859 q 110 892 96 881 q 139 904 125 904 q 169 892 156 904 q 182 859 182 881 l 182 -230 q 168 -263 182 -252 q 139 -273 153 -273 q 109 -263 121 -273 q 96 -230 96 -252 l 96 859 z "},"}":{"ha":370,"x_min":10,"x_max":361,"o":"m 134 734 q 81 827 134 827 l 45 827 q 19 838 29 827 q 10 864 10 849 q 18 891 10 878 q 45 904 26 904 l 115 904 q 196 865 160 904 q 233 763 235 824 l 233 580 q 246 479 233 503 q 275 443 259 455 q 316 429 292 431 q 350 415 340 428 q 361 386 361 402 q 350 358 361 370 q 316 343 340 345 q 275 330 292 342 q 249 300 259 319 q 233 195 233 268 l 233 13 q 196 -89 233 -45 q 115 -128 163 -128 l 45 -128 q 19 -115 29 -128 q 10 -88 10 -102 q 18 -61 10 -73 q 45 -48 26 -48 l 81 -48 q 134 43 134 -48 l 134 217 q 169 342 134 294 q 220 386 195 374 q 200 402 216 390 q 169 434 185 415 q 134 559 131 485 l 134 734 z "},"~":{"ha":816,"x_min":217,"x_max":572,"o":"m 389 817 q 407 811 389 817 q 443 798 426 805 q 474 792 460 792 q 511 808 498 792 q 541 830 527 830 q 564 822 556 830 q 572 808 572 814 q 570 792 572 798 q 469 722 541 722 q 433 728 453 722 q 393 742 412 734 q 356 757 374 750 q 322 763 338 763 q 279 743 294 763 q 249 723 263 723 q 220 752 217 723 q 223 763 220 757 q 326 830 254 830 q 389 817 351 830 z "}," ":{"ha":481,"x_min":0,"x_max":0,"o":""},"¢":{"ha":627,"x_min":51,"x_max":556,"o":"m 514 96 l 522 99 q 546 86 536 99 q 556 58 556 73 q 538 30 556 43 q 492 5 520 16 q 378 -16 436 -14 l 378 -139 q 366 -168 378 -158 q 340 -177 354 -177 q 314 -168 326 -177 q 302 -139 302 -158 l 302 -16 q 115 89 185 -5 q 51 303 51 177 q 120 514 51 426 q 302 619 192 607 l 302 750 q 314 779 302 769 q 340 789 326 789 q 366 779 354 789 q 378 750 378 769 l 378 619 q 522 580 469 616 q 540 554 540 568 q 531 527 540 540 q 512 514 522 514 l 503 514 q 369 543 417 543 q 282 528 321 543 q 216 485 243 514 q 153 303 153 418 q 211 129 153 195 q 361 64 263 64 q 514 96 436 64 z "},"©":{"ha":1007,"x_min":86,"x_max":932,"o":"m 512 77 q 399 91 453 77 q 297 133 345 105 q 212 196 249 160 q 147 278 176 233 q 89 484 86 370 q 214 766 89 648 q 399 872 291 843 q 512 886 453 886 q 623 872 570 886 q 724 831 677 857 q 809 768 771 805 q 875 686 846 731 q 932 484 932 591 q 875 278 932 374 q 723 132 819 187 q 512 77 627 77 m 160 484 q 187 346 160 409 q 259 243 214 284 q 512 147 358 147 q 760 243 666 147 q 857 484 857 338 q 761 723 857 629 q 512 817 664 817 q 259 723 359 817 q 160 484 160 629 m 536 303 q 637 332 578 303 q 650 335 642 335 q 666 328 658 335 q 674 311 674 321 q 546 244 674 263 q 501 243 530 243 q 429 259 473 243 q 354 303 386 275 q 281 485 281 374 q 350 664 281 599 q 514 723 417 723 q 601 711 560 723 q 661 688 642 699 q 680 663 680 677 q 673 639 680 648 q 657 629 666 629 q 632 639 648 629 q 538 664 587 664 q 458 653 489 664 q 405 619 428 642 q 354 485 354 572 q 407 350 354 399 q 536 303 455 303 z "},"®":{"ha":1007,"x_min":80,"x_max":936,"o":"m 354 651 q 378 693 354 683 q 398 696 388 696 l 556 696 q 714 627 690 696 q 723 570 723 603 q 713 515 723 536 q 680 479 702 493 q 581 447 651 457 l 694 284 q 691 251 706 262 q 666 239 677 239 q 639 254 647 239 l 512 447 l 421 447 l 421 271 q 410 247 421 254 q 388 239 399 239 q 366 247 377 239 q 354 271 354 254 l 354 651 m 421 637 l 421 504 l 541 504 q 613 512 594 504 q 648 575 648 530 q 616 627 648 610 q 543 637 597 637 l 421 637 m 508 57 q 394 72 447 57 q 292 113 340 86 q 206 177 244 139 q 139 259 168 216 q 95 356 110 303 q 80 465 80 409 q 95 575 80 522 q 139 673 110 627 q 206 755 168 718 q 292 819 244 792 q 395 861 340 846 q 509 876 450 876 q 623 861 568 876 q 724 819 677 846 q 810 755 771 792 q 878 674 849 718 q 936 465 936 578 q 809 177 936 297 q 508 57 685 57 m 156 465 q 255 220 156 316 q 508 125 354 125 q 761 220 661 125 q 859 465 859 313 q 761 709 859 613 q 508 805 661 805 q 255 709 351 805 q 156 465 156 610 z "},"¼":{"ha":940,"x_min":93,"x_max":894,"o":"m 342 -29 q 314 -53 332 -53 q 286 -44 297 -53 q 275 -25 275 -35 q 278 -10 275 -14 l 570 849 q 600 875 580 876 q 625 866 613 875 q 637 848 637 857 l 637 837 q 635 829 637 830 l 342 -29 m 894 139 q 868 118 894 118 l 814 118 l 814 32 q 805 8 814 16 q 782 0 795 0 q 762 8 771 0 q 754 32 754 16 l 754 118 l 543 118 q 517 126 527 118 q 508 147 508 134 q 514 169 508 160 l 722 484 q 771 512 741 514 q 801 502 789 512 q 814 466 814 492 l 814 160 l 868 160 q 888 154 881 160 q 894 139 894 148 m 562 160 l 754 160 l 754 455 l 562 160 m 129 723 q 117 718 125 718 q 101 726 109 718 q 93 744 93 734 q 102 761 93 754 l 225 838 q 259 839 246 849 q 271 811 271 829 l 271 377 q 262 354 271 361 q 239 348 252 348 q 219 354 227 348 q 211 377 211 361 l 211 776 l 129 723 z "},"½":{"ha":950,"x_min":93,"x_max":884,"o":"m 342 -29 q 314 -53 332 -53 q 286 -44 297 -53 q 275 -25 275 -35 q 278 -10 275 -14 l 568 849 q 600 875 578 876 q 625 866 613 875 q 637 848 637 857 q 635 829 637 837 l 342 -29 m 757 455 q 715 457 741 460 q 623 428 680 457 q 603 423 613 425 q 587 429 594 421 q 580 445 580 436 q 594 467 580 455 q 629 489 608 479 q 717 512 677 512 q 784 504 757 512 q 832 480 811 495 q 865 441 852 465 q 878 390 878 418 q 865 330 878 361 q 832 270 852 300 q 785 208 811 239 q 731 149 760 177 q 674 97 702 121 q 626 53 647 72 l 857 53 q 876 44 868 53 q 884 26 884 35 q 878 8 884 16 q 857 0 872 0 l 594 0 q 560 10 570 0 q 551 32 551 19 q 571 74 551 53 q 616 118 591 96 q 668 168 642 140 q 721 225 694 196 q 766 283 747 254 q 814 383 811 345 q 757 455 814 436 m 129 723 q 117 718 125 718 q 101 726 109 718 q 93 744 93 734 q 102 761 93 754 l 225 838 q 259 839 246 849 q 271 811 271 829 l 271 377 q 262 354 271 361 q 239 348 252 348 q 219 354 227 348 q 211 377 211 361 l 211 776 l 129 723 z "},"¾":{"ha":977,"x_min":34,"x_max":904,"o":"m 118 600 q 140 626 118 626 l 163 626 q 235 645 211 626 q 278 718 278 675 q 246 782 278 757 q 189 808 220 808 q 139 803 158 808 q 105 793 120 798 q 77 785 89 789 q 56 781 64 781 q 41 789 48 781 q 34 809 34 798 q 49 829 34 819 q 86 846 64 838 q 165 857 125 857 q 235 850 206 857 q 287 824 263 843 q 340 722 340 785 q 311 645 340 677 q 239 603 284 613 l 239 600 q 340 517 316 581 q 349 465 350 495 q 334 409 348 436 q 297 364 321 383 q 179 330 252 330 q 105 342 140 330 q 42 383 38 361 q 48 401 42 393 q 62 409 54 409 q 81 405 70 409 q 177 383 121 386 q 287 473 287 383 q 252 549 287 517 q 169 578 217 575 l 140 578 q 124 584 129 578 q 118 600 118 591 m 361 -29 q 334 -53 351 -53 q 307 -44 316 -53 q 297 -25 297 -35 q 297 -10 297 -14 l 587 849 q 619 875 597 876 q 644 866 632 875 q 656 847 656 857 q 655 829 656 837 l 361 -29 m 904 139 q 878 118 904 118 l 824 118 l 824 32 q 814 8 824 16 q 793 0 805 0 q 772 8 781 0 q 763 32 763 16 l 763 118 l 551 118 q 525 126 533 118 q 517 147 517 134 q 524 169 517 160 l 731 484 q 781 512 750 514 q 811 502 798 512 q 824 466 824 492 l 824 160 l 878 160 q 897 154 891 160 q 904 139 904 148 m 572 160 l 763 160 l 763 455 l 572 160 z "},"×":{"ha":627,"x_min":110,"x_max":589,"o":"m 292 249 l 131 421 q 125 439 125 428 q 128 457 125 450 q 139 466 131 463 q 174 479 156 479 q 206 463 192 479 l 354 300 l 504 465 q 534 479 517 479 q 564 469 551 479 q 578 448 578 460 q 570 428 578 436 l 407 252 l 580 67 q 588 49 589 57 q 583 34 587 42 q 572 22 580 26 q 504 26 533 -5 l 342 206 l 182 24 q 158 10 169 10 q 124 21 137 10 q 110 42 110 32 q 118 62 110 53 l 292 249 z "},"÷":{"ha":728,"x_min":53,"x_max":677,"o":"m 93 217 q 65 230 77 217 q 53 260 53 243 q 65 289 53 278 q 93 300 77 300 l 635 300 q 664 289 651 300 q 677 261 677 278 q 664 231 677 244 q 635 217 651 217 l 93 217 m 303 425 q 302 431 303 425 q 300 446 300 436 q 303 468 300 457 q 316 487 307 479 q 338 500 326 495 q 365 504 350 504 q 393 500 380 504 q 413 487 405 495 q 425 468 421 479 q 428 446 428 457 q 425 425 428 436 q 413 406 421 415 q 393 393 405 398 q 365 388 380 388 q 338 393 350 388 q 316 406 326 398 q 303 425 307 415 m 302 49 q 299 55 302 49 q 297 71 297 61 q 302 92 297 81 q 314 111 307 102 q 335 125 322 120 q 363 129 348 129 q 392 125 378 129 q 413 111 405 120 q 425 92 421 102 q 428 71 428 81 q 425 49 428 61 q 413 30 421 38 q 392 18 405 22 q 363 13 378 13 q 335 18 348 13 q 314 30 322 22 q 302 49 307 38 z "},"ॐ":{"ha":996,"x_min":48,"x_max":942,"o":"m 782 664 q 942 405 942 664 q 892 198 942 275 q 758 121 843 121 q 674 159 699 121 q 648 286 648 196 l 648 330 q 608 409 648 409 q 520 374 573 409 q 595 183 595 271 q 544 45 595 94 q 405 -5 492 -5 q 166 120 268 -5 q 48 433 64 244 l 88 445 q 194 182 113 281 q 378 83 275 83 q 471 123 433 83 q 509 219 509 163 q 426 409 509 324 q 318 318 383 348 l 273 423 q 413 554 413 465 q 332 621 413 621 q 200 583 271 621 l 156 686 q 289 717 217 717 q 413 663 361 717 q 465 524 465 610 q 452 458 465 487 l 465 445 q 616 520 543 520 q 634 519 623 520 q 782 664 659 664 m 669 506 q 699 428 699 490 l 699 321 q 763 216 699 216 q 854 267 817 216 q 891 397 891 319 q 857 522 891 474 q 771 570 824 570 q 669 506 699 570 m 342 809 l 378 833 q 508 760 434 760 q 635 833 581 760 l 722 761 q 556 672 639 672 q 342 809 431 672 m 522 931 l 589 862 l 522 797 l 455 867 l 522 931 z "},"॑":{"ha":0,"x_min":-342,"x_max":-257,"o":"m -257 1204 l -342 1204 l -342 1764 l -257 1764 l -257 1204 z "},"॒":{"ha":0,"x_min":-843,"x_max":-67,"o":"m -67 -544 l -843 -544 l -843 -466 l -67 -466 l -67 -544 z "},"।":{"ha":329,"x_min":107,"x_max":219,"o":"m 219 -32 l 107 -32 l 107 634 l 219 634 l 219 -32 z "},"॥":{"ha":589,"x_min":110,"x_max":469,"o":"m 222 -29 l 110 -29 l 110 639 l 222 639 l 222 -29 m 469 -32 l 359 -32 l 359 634 l 469 634 l 469 -32 z "},"ఁ":{"ha":466,"x_min":32,"x_max":394,"o":"m 351 51 q 394 21 394 51 q 348 -18 394 -18 q 125 75 217 -18 q 32 299 32 168 q 124 518 32 431 q 343 605 216 605 q 394 571 394 605 q 345 536 394 536 q 172 468 243 536 q 102 299 102 399 q 176 125 102 200 q 351 51 249 51 z "},"ం":{"ha":744,"x_min":32,"x_max":669,"o":"m 350 605 q 418 605 350 605 q 577 514 485 605 q 669 290 669 423 q 580 69 669 156 q 354 -18 490 -18 q 125 75 217 -18 q 32 299 32 168 q 124 518 32 431 q 350 605 216 605 m 355 51 q 408 51 355 51 q 531 119 461 51 q 600 295 600 187 q 528 469 600 402 q 350 536 457 536 q 172 468 243 536 q 102 299 102 399 q 176 125 102 200 q 355 51 249 51 z "},"ః":{"ha":375,"x_min":32,"x_max":303,"o":"m 303 469 q 265 374 303 415 q 169 334 227 334 q 72 370 112 334 q 32 465 32 407 q 70 564 32 524 q 168 605 109 605 q 265 564 227 605 q 303 469 303 524 m 167 251 q 196 251 167 251 q 264 214 225 251 q 303 122 303 177 q 267 26 303 67 q 168 -14 230 -14 q 69 22 105 -14 q 32 121 32 59 q 70 216 32 182 q 167 251 109 251 m 169 402 q 218 421 198 402 q 238 470 238 441 q 219 520 238 500 q 169 541 200 541 q 97 471 97 541 q 119 421 97 441 q 169 402 140 402 m 171 51 q 186 51 171 51 q 220 70 201 51 q 239 122 239 89 q 218 172 239 155 q 168 188 196 188 q 118 168 139 188 q 97 121 97 147 q 119 73 97 94 q 171 51 140 51 z "},"అ":{"ha":905,"x_min":8,"x_max":832,"o":"m 246 353 q 267 353 246 353 q 314 375 287 353 q 342 441 342 398 q 314 509 342 484 q 246 535 287 535 q 180 505 204 535 q 155 441 155 476 q 180 379 155 405 q 246 353 204 353 m 832 343 q 702 70 832 171 q 409 -18 586 -18 q 120 79 231 -18 q 8 311 8 176 q 79 527 8 447 q 254 607 150 607 q 365 564 321 607 q 409 446 409 522 q 362 328 409 370 q 251 286 316 286 q 140 327 185 286 q 89 418 94 369 q 80 382 85 409 q 75 334 75 354 q 160 144 75 225 q 418 51 259 51 q 671 129 578 51 q 765 353 765 208 q 729 481 765 429 q 643 533 693 533 q 565 506 592 533 q 538 429 538 479 q 623 284 538 342 q 666 228 666 255 q 615 180 666 180 l 246 180 q 206 206 206 180 l 206 235 q 243 247 211 247 l 551 247 q 493 314 524 260 q 463 437 463 369 q 510 555 463 504 q 634 605 557 605 q 771 534 710 605 q 832 343 832 463 z "},"ఆ":{"ha":908,"x_min":8,"x_max":835,"o":"m 86 428 l 75 343 q 176 133 75 216 q 441 51 278 51 q 685 101 605 51 q 749 200 749 137 q 736 255 749 241 q 659 207 709 230 q 559 184 610 184 l 249 184 q 208 214 208 184 q 243 252 208 252 l 551 252 q 622 259 594 252 q 670 292 650 267 q 527 358 573 307 q 487 465 487 398 q 538 572 487 532 q 668 611 589 611 q 791 564 747 611 q 835 441 835 516 q 787 308 835 366 q 825 206 825 270 q 734 47 825 112 q 436 -18 642 -18 q 112 89 230 -18 q 8 315 8 182 q 76 532 8 449 q 249 615 144 615 q 365 568 321 615 q 409 450 409 522 q 364 334 409 378 q 257 291 319 291 q 150 322 195 291 q 86 428 99 364 m 247 356 q 269 356 247 356 q 316 382 291 356 q 342 448 342 407 q 314 515 342 489 q 249 541 287 541 q 183 514 211 541 q 155 453 155 487 q 179 387 155 418 q 247 356 203 356 m 763 436 q 666 536 763 536 q 568 453 568 536 q 643 372 568 394 q 728 346 688 358 q 753 390 742 370 q 763 436 763 410 z "},"ఇ":{"ha":859,"x_min":8,"x_max":785,"o":"m 631 233 q 647 362 647 281 q 610 491 647 444 q 514 538 573 538 q 428 505 455 538 q 382 407 401 473 q 350 380 375 380 q 314 399 326 380 q 292 453 303 418 q 256 512 281 487 q 189 538 231 538 q 115 512 147 538 q 83 436 83 487 l 89 375 q 53 346 89 346 q 8 428 8 346 q 59 558 8 509 q 180 607 110 607 q 291 574 251 607 q 346 493 332 541 q 401 574 354 536 q 509 611 447 611 q 666 536 611 611 q 720 345 720 461 q 690 187 720 271 q 758 81 730 137 q 785 -17 785 24 q 752 -57 785 -57 q 712 -6 712 -57 q 691 75 712 45 q 655 128 688 81 q 322 -18 551 -18 q 136 24 219 -18 q 43 157 43 75 q 114 274 43 239 q 343 308 185 308 q 510 285 433 308 q 631 233 587 262 m 342 241 q 115 153 115 241 q 181 78 115 107 q 334 49 247 49 q 492 85 420 49 q 602 172 564 121 q 485 221 559 201 q 342 241 410 241 z "},"ఈ":{"ha":1248,"x_min":8,"x_max":1175,"o":"m 1097 436 q 1012 522 1097 522 q 937 436 937 522 q 902 405 937 405 q 873 412 881 405 q 865 447 865 418 q 908 545 865 501 q 1013 589 950 589 q 1120 545 1076 589 q 1164 452 1164 501 q 1111 322 1164 369 q 1175 195 1175 271 q 1132 73 1175 118 q 1020 29 1089 29 q 903 70 951 29 q 854 177 854 112 q 869 242 854 204 q 900 292 884 279 l 785 292 q 690 70 785 158 q 457 -18 595 -18 q 227 74 319 -18 q 134 292 134 166 l 56 292 q 8 329 8 292 q 42 359 8 359 l 140 359 q 220 512 156 447 q 366 599 283 578 q 302 661 322 637 q 259 715 259 702 q 272 739 259 728 q 298 750 286 750 q 342 714 310 750 q 439 619 426 626 l 452 619 l 655 805 q 733 865 723 865 q 755 852 742 865 q 768 821 768 840 q 522 603 768 801 q 692 522 621 589 q 781 359 763 455 l 1017 359 q 1078 381 1060 359 q 1097 436 1097 402 m 714 359 q 626 496 696 444 q 462 549 556 549 q 299 495 369 549 q 208 359 228 441 l 714 359 m 1110 184 q 1020 278 1110 278 q 950 255 979 278 q 921 185 921 231 q 948 113 921 139 q 1014 88 975 88 q 1081 117 1052 88 q 1110 184 1110 145 m 722 292 l 201 292 q 275 121 201 192 q 464 49 350 49 q 650 121 578 49 q 722 292 722 192 z "},"ఉ":{"ha":923,"x_min":8,"x_max":849,"o":"m 768 129 q 696 118 742 118 q 611 151 650 118 q 572 242 572 184 q 608 336 572 300 q 710 372 645 372 q 813 323 776 372 q 849 200 849 275 q 787 30 849 86 q 655 -21 736 -21 q 479 75 532 -21 q 326 -18 426 -18 q 163 50 227 -18 q 99 235 99 118 q 113 330 99 287 l 57 330 q 8 361 8 330 q 45 394 8 394 l 136 394 q 267 549 184 493 q 461 605 350 605 q 430 674 445 631 q 415 736 415 717 q 481 806 415 806 q 525 788 509 806 q 541 746 541 769 q 532 694 541 722 q 495 605 524 667 q 675 557 595 605 q 755 469 755 509 q 715 436 755 436 q 624 504 678 474 q 484 535 570 535 q 216 394 310 535 l 538 394 q 583 353 583 394 q 535 330 583 330 l 188 330 q 177 231 177 307 q 218 104 177 156 q 313 51 259 51 q 439 140 409 51 q 448 203 445 182 q 478 223 450 223 q 510 193 506 223 q 523 131 514 163 q 564 74 532 99 q 648 49 597 49 q 768 129 744 49 m 706 176 q 754 193 734 176 q 774 239 774 211 q 754 288 774 268 q 704 308 734 308 q 654 288 674 308 q 634 238 634 268 q 706 176 634 176 z "},"ఊ":{"ha":1336,"x_min":8,"x_max":1263,"o":"m 714 442 q 484 532 624 532 q 208 386 289 532 l 1125 386 q 1168 405 1154 386 q 1181 456 1181 425 q 1160 514 1181 487 q 1101 541 1138 541 q 1041 520 1063 541 q 1023 481 1031 508 q 1020 444 1022 461 q 987 428 1011 428 q 945 460 945 428 q 986 564 945 517 q 1096 610 1027 610 q 1207 571 1165 610 q 1248 478 1248 532 q 1236 394 1248 425 q 1194 337 1224 364 q 1244 283 1224 321 q 1263 206 1263 244 q 1215 92 1263 139 q 1099 45 1167 45 q 983 86 1031 45 q 934 195 934 128 q 951 268 934 233 q 985 318 967 303 l 805 318 q 843 195 843 276 q 777 24 843 81 q 652 -18 726 -18 q 540 6 578 -18 q 479 78 503 30 q 314 -18 429 -18 q 161 51 223 -18 q 99 239 99 120 q 112 318 99 281 l 42 318 q 8 352 8 318 q 45 386 8 386 l 129 386 q 378 591 209 556 q 340 665 356 624 q 324 726 324 706 q 394 795 324 795 q 437 777 421 795 q 452 738 452 758 q 448 698 452 717 q 415 599 444 678 l 481 603 l 533 600 q 504 673 517 634 q 492 726 492 712 q 564 795 492 795 q 607 777 591 795 q 624 730 624 760 q 570 592 624 701 q 702 540 648 578 q 755 473 755 503 q 714 442 755 442 m 701 176 q 715 176 701 176 q 751 195 730 176 q 773 242 773 214 q 753 291 773 270 q 702 311 733 311 q 652 291 672 311 q 632 240 632 270 q 652 193 632 211 q 701 176 672 176 m 1094 112 q 1114 112 1094 112 q 1162 140 1133 112 q 1191 203 1191 169 q 1163 267 1191 236 q 1097 297 1135 297 q 1031 269 1058 297 q 1004 205 1004 241 q 1030 140 1004 169 q 1094 112 1055 112 m 765 131 q 690 115 738 115 q 607 145 643 115 q 572 231 572 176 q 599 318 572 287 l 184 318 q 176 254 176 299 q 216 107 176 158 q 309 56 255 56 q 392 80 362 56 q 431 143 421 104 q 444 204 441 182 q 477 227 447 227 q 511 188 506 227 q 560 78 524 107 q 644 49 595 49 q 729 77 693 49 q 765 131 765 105 z "},"ఋ":{"ha":1662,"x_min":8,"x_max":1588,"o":"m 426 184 q 535 51 426 51 q 651 116 603 51 q 699 284 699 180 q 631 458 699 388 q 477 528 562 528 q 436 560 436 528 q 477 595 436 595 q 677 519 597 595 q 769 278 769 433 l 769 265 q 813 109 769 171 q 926 46 856 46 q 1046 92 996 46 q 1106 225 1095 137 l 1111 268 l 1111 287 q 1047 482 1111 415 q 912 533 991 533 q 864 542 875 533 q 854 568 854 551 q 921 603 854 603 q 1089 527 1015 603 q 1178 279 1178 436 l 1178 268 q 1222 110 1178 174 q 1340 46 1266 46 q 1469 109 1414 46 q 1523 293 1523 171 q 1456 482 1523 415 q 1322 533 1402 533 q 1273 542 1284 533 q 1263 568 1263 551 q 1331 603 1263 603 q 1499 527 1426 603 q 1588 283 1588 436 q 1516 52 1588 131 q 1325 -27 1443 -27 q 1218 6 1268 -27 q 1143 101 1169 38 q 1054 7 1113 42 q 926 -27 995 -27 q 731 107 784 -27 q 527 -21 667 -21 q 433 12 473 -21 q 383 83 394 45 q 192 -18 335 -18 q 64 32 120 -18 q 8 156 8 81 q 86 314 8 262 q 238 358 110 329 q 324 429 324 377 q 290 508 324 482 q 208 533 255 533 q 135 512 161 533 q 103 463 109 490 q 94 409 97 436 q 57 388 85 388 q 22 423 22 388 q 73 556 22 508 q 209 603 125 603 q 344 557 294 603 q 394 429 394 511 q 286 303 394 338 q 153 262 219 283 q 100 221 110 239 q 89 158 89 203 q 125 85 89 113 q 217 56 160 56 q 310 96 275 56 q 345 195 345 136 q 388 241 345 241 q 426 184 426 241 z "},"ఌ":{"ha":849,"x_min":8,"x_max":776,"o":"m 765 345 q 746 246 765 287 q 678 171 728 204 q 508 59 592 115 q 401 -89 401 -24 q 449 -207 401 -153 q 551 -260 496 -260 q 659 -208 605 -260 q 712 -77 712 -156 q 698 -5 712 -40 q 731 46 682 46 q 766 19 763 46 q 776 -73 776 -43 q 693 -267 776 -196 q 538 -324 623 -324 q 392 -251 453 -324 q 330 -104 330 -179 q 476 117 330 19 q 567 176 533 155 q 674 257 666 239 q 699 341 699 289 q 661 421 699 393 q 562 450 623 450 q 462 413 501 450 q 423 314 423 377 q 384 270 423 270 q 345 330 345 270 q 306 423 345 390 q 206 457 267 457 q 75 342 75 457 q 80 307 75 324 q 85 279 85 289 q 71 262 85 270 q 45 254 57 254 q 8 343 8 254 q 65 477 8 433 q 200 522 123 522 q 322 494 278 522 q 380 428 367 466 q 442 489 421 476 q 568 517 487 517 q 706 470 648 517 q 765 345 765 423 z "},"ఎ":{"ha":851,"x_min":8,"x_max":777,"o":"m 423 758 l 348 752 q 310 784 310 752 q 375 825 310 825 q 738 559 643 825 q 777 337 777 445 q 711 72 777 168 q 524 -24 645 -24 q 354 81 404 -24 q 296 14 343 45 q 201 -18 249 -18 q 62 33 117 -18 q 8 161 8 83 q 61 295 8 239 q 203 351 115 351 q 346 267 287 351 q 413 115 370 231 q 461 65 428 86 q 527 45 495 45 q 650 101 603 45 q 712 324 712 176 q 658 583 712 473 q 469 752 589 720 q 423 758 444 758 m 192 45 q 276 77 241 45 q 311 161 311 110 q 281 249 311 212 q 195 286 251 286 q 106 249 139 286 q 73 160 73 212 q 108 77 73 109 q 192 45 142 45 z "},"ఏ":{"ha":851,"x_min":8,"x_max":777,"o":"m 372 950 q 325 915 372 915 q 241 883 278 915 q 198 766 198 838 q 209 706 198 734 q 220 672 220 677 q 182 637 220 637 q 145 674 163 637 q 128 781 128 710 q 186 918 128 851 q 322 985 244 985 q 372 950 372 985 m 423 758 l 348 752 q 310 784 310 752 q 375 825 310 825 q 738 559 643 825 q 777 337 777 445 q 711 72 777 168 q 524 -24 645 -24 q 354 81 404 -24 q 296 14 343 45 q 201 -18 249 -18 q 62 33 117 -18 q 8 161 8 83 q 61 295 8 239 q 203 351 115 351 q 346 267 287 351 q 413 115 370 231 q 461 65 428 86 q 527 45 495 45 q 650 101 603 45 q 712 324 712 176 q 658 583 712 473 q 469 752 589 720 q 423 758 444 758 m 192 45 q 276 77 241 45 q 311 161 311 110 q 281 249 311 212 q 195 286 251 286 q 106 249 139 286 q 73 160 73 212 q 108 77 73 109 q 192 45 142 45 z "},"ఐ":{"ha":833,"x_min":8,"x_max":760,"o":"m 192 611 q 351 500 311 611 q 413 583 369 551 q 530 615 457 615 q 697 531 634 615 q 760 302 760 447 q 690 69 760 156 q 511 -18 621 -18 q 419 10 463 -18 q 359 78 375 38 q 290 6 324 30 q 185 -18 255 -18 q 61 36 115 -18 q 8 167 8 89 q 62 296 8 244 q 195 348 117 348 q 346 267 297 348 q 390 168 367 228 q 434 89 413 109 q 520 56 471 56 q 644 122 592 56 q 696 299 696 188 q 651 476 696 409 q 536 543 607 543 q 431 503 465 543 q 388 418 407 476 q 350 383 378 383 q 311 413 321 383 q 294 471 302 444 q 253 523 279 503 q 184 543 227 543 q 113 509 142 543 q 83 436 83 476 q 86 411 83 421 q 91 386 89 401 q 53 353 91 353 q 10 433 10 353 q 62 562 10 512 q 192 611 115 611 m 192 51 q 273 81 239 51 q 307 161 307 110 q 273 247 307 212 q 191 283 239 283 q 109 247 142 283 q 77 166 77 212 q 110 85 77 120 q 192 51 144 51 z "},"ఒ":{"ha":838,"x_min":8,"x_max":765,"o":"m 53 380 q 16 420 16 380 q 69 560 16 506 q 208 615 121 615 q 346 569 295 615 q 398 458 398 524 q 366 362 398 393 q 302 319 345 338 q 145 281 187 300 q 94 241 104 262 q 75 160 75 212 q 113 78 75 107 q 212 49 150 49 q 313 86 275 49 q 351 184 351 123 q 391 228 351 228 q 431 168 431 228 q 469 75 431 109 q 568 42 506 42 q 699 156 699 42 q 694 192 699 174 q 690 220 690 209 q 705 238 690 230 q 730 246 720 246 q 765 156 765 246 q 708 22 765 67 q 559 -24 651 -24 q 453 4 498 -24 q 393 70 407 32 q 332 10 353 22 q 205 -18 286 -18 q 70 24 125 -18 q 8 144 8 75 q 26 252 8 212 q 94 324 43 292 q 239 369 110 332 q 330 445 330 393 q 294 525 330 501 q 202 549 257 549 q 117 514 147 549 q 86 429 86 479 q 53 380 86 380 z "},"ఓ":{"ha":838,"x_min":8,"x_max":765,"o":"m 172 615 q 152 693 152 635 q 194 795 152 750 q 298 840 236 840 q 395 815 359 840 q 431 752 431 790 q 394 723 431 723 q 380 726 380 723 q 354 756 367 742 q 305 769 342 769 q 245 748 268 769 q 222 699 222 726 q 231 655 222 672 q 255 611 239 639 q 359 558 321 600 q 398 454 398 516 q 366 362 398 393 q 302 319 345 338 q 145 281 187 300 q 94 241 104 262 q 75 160 75 212 q 113 78 75 107 q 212 49 150 49 q 313 86 275 49 q 351 184 351 123 q 391 228 351 228 q 431 168 431 228 q 469 75 431 109 q 568 42 506 42 q 699 156 699 42 q 694 192 699 174 q 690 220 690 209 q 705 238 690 230 q 730 246 720 246 q 765 156 765 246 q 708 22 765 67 q 559 -24 651 -24 q 453 4 498 -24 q 393 70 407 32 q 332 10 353 22 q 205 -18 286 -18 q 70 24 125 -18 q 8 144 8 75 q 26 252 8 212 q 94 324 43 292 q 239 369 110 332 q 330 445 330 393 q 294 525 330 501 q 202 549 257 549 q 117 514 147 549 q 86 429 86 479 q 53 380 86 380 q 16 420 16 380 q 58 553 16 501 q 172 615 101 605 z "},"ఔ":{"ha":873,"x_min":8,"x_max":800,"o":"m 391 70 q 201 -18 337 -18 q 62 31 117 -18 q 8 172 8 80 q 89 322 8 265 q 160 348 117 340 q 287 383 267 375 q 330 451 330 404 q 295 524 330 498 q 205 549 260 549 q 120 519 150 549 q 89 434 89 489 q 53 380 89 380 q 13 425 13 380 q 69 564 13 512 q 212 615 126 615 l 231 615 q 268 611 241 611 q 318 631 295 611 q 342 681 342 651 q 322 730 342 710 q 273 750 302 750 l 57 750 q 18 777 18 750 q 30 809 18 805 q 57 813 42 813 l 637 813 q 753 767 706 813 q 800 656 800 722 q 754 547 800 591 q 644 503 709 503 q 532 544 580 503 q 485 655 485 586 q 494 711 485 680 q 516 750 503 742 l 385 750 q 409 677 409 733 q 343 567 409 594 q 394 465 394 527 q 374 372 394 402 q 322 328 354 342 q 223 299 291 314 q 134 276 156 284 q 70 163 70 249 q 108 80 70 110 q 211 49 145 49 q 316 89 276 49 q 356 178 356 128 q 391 228 356 228 q 426 176 426 228 q 576 42 426 42 q 667 73 634 42 q 699 156 699 105 q 696 182 699 174 q 690 206 693 190 q 722 241 690 241 q 763 156 763 241 q 707 24 763 72 q 580 -24 651 -24 q 391 70 441 -24 m 643 568 q 663 568 643 568 q 707 595 683 568 q 731 660 731 621 q 710 725 731 699 q 647 750 688 750 q 580 725 607 750 q 554 662 554 699 q 579 596 554 624 q 643 568 603 568 z "},"క":{"ha":691,"x_min":8,"x_max":618,"o":"m 34 439 q 184 592 34 556 l 177 597 l 101 675 q 89 695 89 683 q 99 717 89 707 q 121 726 109 726 q 144 720 134 726 l 260 605 l 283 605 l 527 825 q 555 840 538 840 q 580 830 572 840 q 589 805 589 821 q 578 781 589 790 q 377 605 453 661 l 375 603 q 525 560 466 603 q 584 452 584 517 q 546 413 584 413 q 508 445 508 413 q 418 527 508 500 q 311 536 390 536 q 112 447 112 536 q 249 370 112 383 q 402 355 327 362 q 519 333 477 348 q 589 275 560 318 q 618 184 618 231 q 539 35 618 88 q 305 -18 460 -18 q 200 -7 239 -18 q 117 22 161 3 q 8 190 8 88 q 57 238 8 238 q 94 184 94 238 q 118 104 94 131 q 318 51 169 51 q 487 85 428 51 q 546 176 546 120 q 507 258 546 233 q 375 292 468 283 q 171 311 283 302 q 74 354 115 321 q 34 439 34 388 z "},"ఖ":{"ha":838,"x_min":8,"x_max":765,"o":"m 196 49 q 218 49 196 49 q 286 81 241 49 q 330 156 330 113 q 300 236 330 198 q 200 281 262 281 q 109 249 139 281 q 78 165 78 217 q 114 81 78 113 q 196 49 150 49 m 445 294 q 413 136 445 247 q 461 73 428 96 q 540 49 495 49 q 658 117 613 49 q 702 292 702 185 q 651 467 702 399 q 535 535 600 535 l 506 535 q 484 564 484 538 q 494 597 484 589 q 538 605 504 605 q 690 524 621 605 q 765 283 765 431 q 702 57 765 136 q 525 -21 640 -21 q 362 62 410 -21 q 195 -16 305 -16 q 61 35 115 -16 q 8 164 8 86 q 58 295 8 241 q 198 348 109 348 q 295 325 262 348 q 367 246 329 302 q 374 346 374 265 q 340 485 374 428 q 231 543 307 543 q 104 420 104 543 q 72 377 104 377 q 42 385 51 377 q 32 420 32 393 q 70 543 32 496 q 234 607 123 607 q 395 530 345 607 q 445 294 445 453 m 364 56 q 409 -69 409 -48 q 395 -111 409 -91 q 357 -131 382 -131 q 318 -113 332 -131 q 305 -69 305 -94 q 330 -7 305 -54 q 364 56 356 40 z "},"గ":{"ha":742,"x_min":8,"x_max":669,"o":"m 412 597 q 595 487 522 578 q 669 277 669 396 q 605 65 669 158 q 510 -18 552 -18 q 468 22 468 -18 q 558 127 517 64 q 599 287 599 190 q 524 460 599 383 q 343 536 449 536 q 144 455 212 536 q 78 284 78 382 q 115 123 78 187 q 195 24 155 73 q 144 -18 195 -18 q 60 69 112 -18 q 8 265 8 156 q 54 455 8 374 q 231 591 117 560 q 176 645 204 611 q 147 675 166 653 q 134 695 134 685 q 144 716 134 706 q 168 726 155 726 q 188 720 180 726 l 307 605 l 332 605 l 573 825 q 603 840 587 840 q 628 830 618 840 q 639 805 639 821 q 626 781 639 790 q 421 605 492 656 l 412 597 z "},"ఘ":{"ha":1244,"x_min":8,"x_max":1170,"o":"m 191 51 q 214 51 191 51 q 271 85 238 51 q 305 168 305 120 q 271 251 305 216 q 191 286 238 286 q 110 252 144 286 q 77 171 77 219 q 110 87 77 123 q 191 51 144 51 m 763 230 q 813 98 769 150 q 926 46 856 46 q 1050 109 996 46 q 1103 293 1103 171 q 1036 482 1103 415 q 902 533 982 533 q 854 542 865 533 q 843 568 843 551 q 912 603 843 603 q 1079 527 1006 603 q 1170 283 1170 436 q 1098 52 1170 131 q 907 -27 1025 -27 q 799 6 849 -27 q 722 105 749 40 q 637 15 691 51 q 517 -21 583 -21 q 359 73 410 -21 q 297 12 345 42 q 198 -18 249 -18 q 61 33 115 -18 q 8 164 8 83 q 61 297 8 246 q 198 348 115 348 q 292 327 254 348 q 349 273 330 307 q 384 189 367 239 q 416 111 401 139 q 461 67 431 83 q 524 51 490 51 q 639 118 589 51 q 690 289 690 185 q 634 465 690 393 q 495 536 578 536 q 463 571 463 536 q 496 605 463 605 q 675 527 600 605 q 763 273 763 436 l 763 230 m 496 824 q 506 799 506 811 q 489 774 506 787 q 263 599 359 664 q 166 554 196 559 q 112 568 129 554 l 35 634 q 8 670 8 656 q 22 696 8 683 q 49 709 35 709 q 81 693 64 709 q 112 669 99 677 q 171 621 148 635 q 433 821 206 632 q 465 838 449 838 q 496 824 482 838 m 362 61 q 382 -6 362 45 q 402 -73 402 -57 q 389 -109 402 -89 q 351 -129 375 -129 q 313 -111 327 -129 q 299 -67 299 -93 q 324 -6 299 -53 q 362 61 350 42 z "},"ఙ":{"ha":838,"x_min":8,"x_max":765,"o":"m 391 70 q 203 -18 330 -18 q 65 30 123 -18 q 8 160 8 77 q 166 351 8 319 q 257 372 217 362 q 327 447 327 393 q 297 519 327 489 q 208 549 267 549 q 117 519 148 549 q 86 436 86 489 q 57 383 86 383 q 13 426 13 383 q 65 560 13 504 q 201 615 117 615 q 340 573 286 615 q 394 452 394 532 l 394 442 l 532 442 l 532 568 q 564 600 532 600 q 597 570 597 600 l 597 442 l 731 442 q 755 413 755 442 q 731 383 755 383 l 597 383 l 597 254 q 564 225 597 225 q 532 244 532 225 l 532 383 l 377 383 q 302 321 350 340 q 231 303 284 314 q 145 276 177 291 q 83 174 83 249 q 114 86 83 123 q 208 49 145 49 q 314 86 271 49 q 356 177 356 123 q 391 231 356 231 q 431 171 431 231 q 469 76 431 110 q 570 42 508 42 q 699 163 699 42 q 695 191 699 179 q 690 212 691 203 q 722 246 690 246 q 765 169 765 246 q 701 18 765 67 q 565 -21 647 -21 q 391 70 449 -21 z "},"చ":{"ha":889,"x_min":8,"x_max":816,"o":"m 313 552 l 236 616 q 209 654 209 640 q 223 680 209 667 q 251 693 236 693 q 282 677 265 693 q 311 653 299 661 q 370 605 350 621 l 377 605 q 635 806 429 631 q 669 821 651 821 q 697 807 686 821 q 707 782 707 793 q 691 757 707 771 q 623 699 647 720 q 498 605 546 639 l 500 605 q 727 504 639 605 q 816 268 816 402 q 759 58 816 134 q 607 -18 702 -18 q 509 6 548 -18 q 455 67 471 30 q 385 -6 425 14 q 289 -18 354 -18 q 166 26 223 -18 q 109 160 109 70 q 129 244 109 206 q 172 302 148 283 l 42 302 q 8 329 8 302 q 43 369 8 369 l 300 369 q 351 321 351 369 q 300 286 351 286 q 214 252 249 286 q 179 164 179 219 q 211 77 179 109 q 299 45 243 45 q 390 79 356 45 q 425 179 425 113 q 433 227 425 216 q 471 238 442 238 q 493 169 493 238 q 608 51 493 51 q 710 105 674 51 q 747 244 747 160 q 648 484 747 407 q 503 536 580 536 l 369 536 q 313 552 332 536 z "},"ఛ":{"ha":889,"x_min":8,"x_max":816,"o":"m 313 552 l 236 616 q 209 654 209 640 q 223 680 209 667 q 251 693 236 693 q 282 677 265 693 q 311 653 299 661 q 370 605 350 621 l 377 605 q 635 806 429 631 q 669 821 651 821 q 697 807 686 821 q 707 782 707 793 q 691 757 707 771 q 623 699 647 720 q 498 605 546 639 l 500 605 q 727 504 639 605 q 816 268 816 402 q 759 58 816 134 q 607 -18 702 -18 q 509 6 548 -18 q 455 67 471 30 q 385 -6 425 14 q 289 -18 354 -18 q 166 26 223 -18 q 109 160 109 70 q 129 244 109 206 q 172 302 148 283 l 42 302 q 8 329 8 302 q 43 369 8 369 l 300 369 q 351 321 351 369 q 300 286 351 286 q 214 252 249 286 q 179 164 179 219 q 211 77 179 109 q 299 45 243 45 q 390 79 356 45 q 425 179 425 113 q 433 227 425 216 q 471 238 442 238 q 493 169 493 238 q 608 51 493 51 q 710 105 674 51 q 747 244 747 160 q 648 484 747 407 q 503 536 580 536 l 369 536 q 313 552 332 536 m 457 59 q 501 -66 501 -45 q 488 -108 501 -88 q 450 -128 474 -128 q 412 -109 426 -128 q 398 -72 398 -91 q 423 -5 398 -53 q 457 59 449 43 z "},"జ":{"ha":845,"x_min":8,"x_max":771,"o":"m 485 570 q 576 615 485 615 q 716 564 667 615 q 765 437 765 512 q 712 317 765 362 q 564 271 659 271 q 448 299 500 271 q 374 366 396 327 q 299 307 354 330 q 153 267 225 286 q 104 236 118 251 q 83 157 83 211 q 121 74 83 104 q 220 45 158 45 q 318 82 281 45 q 356 179 356 120 q 394 223 356 223 q 433 164 433 223 q 566 49 433 49 q 699 172 699 49 l 696 223 q 730 257 696 257 q 771 168 771 257 q 715 31 771 80 q 565 -18 659 -18 q 454 9 501 -18 q 394 70 407 35 q 332 8 364 30 q 205 -18 286 -18 q 70 24 125 -18 q 8 153 8 75 q 91 313 8 260 q 238 356 104 321 q 330 435 330 382 q 295 515 330 489 q 199 541 259 541 q 111 508 139 541 q 83 424 83 476 q 53 372 83 372 q 10 409 10 372 q 62 548 10 496 q 200 600 115 600 q 326 572 284 600 q 395 469 367 543 q 459 366 423 396 q 565 337 495 337 q 699 445 699 337 q 672 516 699 490 q 602 543 645 543 l 535 543 q 494 549 503 543 q 485 570 485 556 z "},"ఝ":{"ha":1537,"x_min":8,"x_max":1464,"o":"m 340 51 q 394 51 340 51 q 517 118 447 51 q 587 292 587 185 q 516 468 587 399 q 338 536 444 536 q 159 468 233 536 q 85 299 85 399 q 159 125 85 200 q 340 51 233 51 m 798 -27 q 611 125 666 -27 q 500 22 572 61 q 334 -18 429 -18 q 105 72 201 -18 q 8 294 8 161 q 66 474 8 393 q 216 587 125 556 l 201 597 l 123 675 q 113 695 113 683 q 121 717 113 707 q 144 726 129 726 q 166 720 158 726 l 284 605 l 292 605 l 308 607 l 549 825 q 579 840 562 840 q 604 830 595 840 q 613 805 613 821 q 600 781 613 790 q 399 607 481 664 l 394 600 q 655 281 655 572 l 653 247 q 698 104 653 161 q 815 46 742 46 q 941 109 888 46 q 995 293 995 171 q 931 482 995 415 q 797 533 875 533 q 748 542 758 533 q 738 568 738 551 q 805 603 738 603 q 972 532 899 603 q 1062 291 1062 444 l 1066 273 q 1102 109 1066 171 q 1216 46 1138 46 q 1346 109 1293 46 q 1398 293 1398 171 q 1331 482 1398 415 q 1197 533 1277 533 q 1149 542 1159 533 q 1140 568 1140 551 q 1207 603 1140 603 q 1376 527 1303 603 q 1464 283 1464 437 q 1394 50 1464 128 q 1202 -27 1323 -27 q 1099 7 1146 -27 q 1028 105 1052 42 q 798 -27 964 -27 m 1030 73 q 1074 -52 1074 -30 q 1061 -93 1074 -73 q 1023 -113 1047 -113 q 984 -95 998 -113 q 971 -57 971 -77 q 996 10 971 -38 q 1030 73 1022 57 z "},"ఞ":{"ha":1102,"x_min":8,"x_max":1028,"o":"m 192 605 q 348 495 289 605 q 396 564 364 536 q 518 607 441 607 q 643 556 595 607 q 707 442 672 527 l 814 442 l 814 552 q 846 594 814 594 q 876 583 868 594 q 884 552 884 572 l 884 442 l 990 442 q 1028 409 1028 442 q 982 377 1028 377 l 884 377 l 884 279 q 854 236 884 236 q 814 273 814 236 l 814 377 l 718 377 l 718 354 q 712 251 718 291 q 685 187 706 212 q 758 82 730 147 q 785 -13 785 18 q 752 -57 785 -57 q 712 -29 712 -57 q 697 53 712 10 q 653 120 682 96 q 532 21 591 51 q 322 -18 450 -18 q 118 27 195 -18 q 42 156 42 72 q 348 305 42 305 q 631 235 474 305 q 642 346 642 263 q 611 483 642 429 q 518 536 580 536 q 429 504 457 536 q 388 409 402 471 q 347 377 375 377 q 308 399 319 377 q 257 512 291 476 q 186 536 230 536 q 113 505 142 536 q 83 431 83 474 l 91 375 q 49 345 91 345 q 8 426 8 345 q 61 556 8 508 q 192 605 115 605 m 597 171 q 352 241 476 241 q 172 220 228 241 q 115 153 115 198 q 174 77 115 109 q 320 46 233 46 q 476 75 407 46 q 597 171 562 109 z "},"ట":{"ha":899,"x_min":8,"x_max":825,"o":"m 260 832 q 275 832 260 832 q 309 809 291 832 q 327 768 327 787 q 307 696 327 749 q 265 619 292 669 l 252 619 q 211 701 230 653 q 192 771 192 749 q 211 813 192 793 q 260 832 230 832 m 140 490 q 78 300 78 399 q 124 129 78 201 q 254 56 169 56 q 342 90 308 56 q 375 169 375 125 l 375 200 q 383 232 375 222 q 421 243 391 243 q 452 206 452 243 l 452 177 q 487 89 452 128 q 580 51 522 51 q 754 311 754 51 q 706 476 754 418 q 568 533 658 533 q 542 546 552 533 q 532 572 532 559 q 584 611 532 611 q 733 548 667 611 q 825 303 825 461 q 761 63 825 144 q 580 -18 696 -18 q 481 4 525 -18 q 418 65 436 26 q 343 2 380 19 q 249 -16 307 -16 q 72 69 136 -16 q 8 293 8 153 q 76 524 8 433 q 260 615 144 615 q 413 473 413 615 q 374 372 413 407 q 270 337 335 337 q 171 368 204 337 q 137 455 137 399 q 140 490 137 469 m 276 404 q 293 404 276 404 q 327 424 310 404 q 345 475 345 444 q 325 528 345 506 q 275 551 305 551 q 223 530 244 551 q 201 479 201 509 q 222 426 201 449 q 276 404 243 404 z "},"ఠ":{"ha":728,"x_min":8,"x_max":655,"o":"m 337 354 q 401 290 401 354 q 337 225 401 225 q 291 243 310 225 q 273 289 273 262 q 291 335 273 316 q 337 354 310 354 m 340 51 q 394 51 340 51 q 517 118 447 51 q 587 292 587 185 q 516 468 587 399 q 338 536 444 536 q 159 468 233 536 q 85 299 85 399 q 159 125 85 200 q 340 51 233 51 m 216 587 l 201 597 l 123 675 q 113 695 113 683 q 121 717 113 707 q 144 726 129 726 q 166 720 158 726 l 284 605 l 292 605 l 308 607 l 549 825 q 579 840 562 840 q 604 830 595 840 q 613 805 613 821 q 600 781 613 790 q 399 607 481 664 l 394 600 q 655 281 655 572 q 565 66 655 150 q 338 -18 476 -18 q 105 72 201 -18 q 8 294 8 161 q 66 474 8 393 q 216 587 125 556 z "},"డ":{"ha":851,"x_min":8,"x_max":777,"o":"m 621 179 q 693 244 693 179 q 672 293 693 271 q 623 314 651 314 q 572 296 595 314 q 548 248 548 278 q 570 199 548 219 q 621 179 592 179 m 394 78 q 232 -14 335 -14 q 69 57 129 -14 q 8 247 8 128 q 72 458 8 367 q 247 584 136 549 q 156 656 223 599 q 144 677 144 667 q 148 699 144 686 q 178 723 166 723 q 204 714 190 723 q 343 607 294 639 q 503 715 375 615 q 624 821 543 752 q 660 840 648 840 q 684 825 672 840 q 696 797 696 811 q 675 765 696 782 q 466 600 549 659 q 626 543 567 591 q 674 476 674 508 q 634 449 674 449 q 383 536 554 536 q 170 450 251 536 q 89 259 89 364 q 129 108 89 155 q 224 61 168 61 q 316 93 281 61 q 351 179 351 126 q 394 231 351 231 q 431 181 431 231 q 468 90 431 131 q 563 49 504 49 q 656 77 621 49 q 698 147 691 105 q 615 121 666 121 q 525 155 564 121 q 487 244 487 188 q 527 338 487 300 q 628 375 567 375 q 734 324 690 375 q 777 198 777 273 q 712 37 777 91 q 559 -18 647 -18 q 457 10 503 -18 q 394 78 410 37 z "},"ఢ":{"ha":851,"x_min":8,"x_max":777,"o":"m 621 179 q 693 244 693 179 q 672 293 693 271 q 623 314 651 314 q 572 296 595 314 q 548 248 548 278 q 570 199 548 219 q 621 179 592 179 m 394 78 q 232 -14 335 -14 q 69 57 129 -14 q 8 247 8 128 q 72 458 8 367 q 247 584 136 549 q 156 656 223 599 q 144 677 144 667 q 148 699 144 686 q 178 723 166 723 q 204 714 190 723 q 343 607 294 639 q 503 715 375 615 q 624 821 543 752 q 660 840 648 840 q 684 825 672 840 q 696 797 696 811 q 675 765 696 782 q 466 600 549 659 q 626 543 567 591 q 674 476 674 508 q 634 449 674 449 q 383 536 554 536 q 170 450 251 536 q 89 259 89 364 q 129 108 89 155 q 224 61 168 61 q 316 93 281 61 q 351 179 351 126 q 394 231 351 231 q 431 181 431 231 q 468 90 431 131 q 563 49 504 49 q 656 77 621 49 q 698 147 691 105 q 615 121 666 121 q 525 155 564 121 q 487 244 487 188 q 527 338 487 300 q 628 375 567 375 q 734 324 690 375 q 777 198 777 273 q 712 37 777 91 q 559 -18 647 -18 q 457 10 503 -18 q 394 78 410 37 m 393 65 q 437 -60 437 -38 q 424 -101 437 -81 q 386 -121 410 -121 q 347 -103 361 -121 q 334 -59 334 -85 q 359 2 334 -45 q 393 65 385 49 z "},"ణ":{"ha":923,"x_min":8,"x_max":849,"o":"m 599 605 q 779 523 709 605 q 849 294 849 441 q 777 63 849 147 q 591 -21 706 -21 q 456 25 504 -21 q 407 143 407 70 q 454 263 407 216 q 579 311 501 311 q 698 266 656 311 q 739 152 739 220 q 736 123 739 140 q 766 196 754 142 q 779 295 779 249 q 727 478 779 413 q 599 543 675 543 q 512 513 543 543 q 469 453 481 484 q 452 404 458 423 q 414 388 441 388 q 377 405 388 388 q 359 437 366 421 q 329 508 351 484 q 227 543 292 543 q 124 512 161 543 q 86 437 86 482 q 125 366 86 391 q 204 340 164 340 q 253 331 243 340 q 263 299 263 322 q 217 262 263 262 q 89 156 89 262 q 121 77 89 104 q 192 51 153 51 q 265 72 231 51 q 322 121 292 96 q 362 77 362 121 q 309 19 362 53 q 181 -14 255 -14 q 57 30 107 -14 q 8 153 8 75 q 28 236 8 206 q 89 300 48 267 q 10 425 10 342 q 68 556 10 508 q 211 605 126 605 q 346 576 295 605 q 413 498 396 546 q 485 576 437 548 q 599 605 533 605 m 570 49 q 639 74 610 49 q 667 146 667 99 q 640 217 667 193 q 572 241 613 241 q 504 215 530 241 q 477 144 477 188 q 504 75 477 101 q 570 49 530 49 z "},"త":{"ha":851,"x_min":8,"x_max":777,"o":"m 302 361 q 227 433 302 433 q 168 411 187 433 q 150 360 150 390 q 172 311 150 330 q 225 291 193 291 q 279 308 257 291 q 302 361 302 326 m 647 372 q 580 436 647 436 q 514 417 536 436 q 492 369 492 399 q 511 314 492 338 q 568 291 530 291 q 647 372 647 291 m 322 536 q 281 554 289 543 l 201 616 q 176 654 176 640 q 188 680 176 667 q 217 693 201 693 q 249 677 233 693 q 278 653 265 661 q 335 605 314 621 l 342 605 q 600 806 394 631 q 635 821 618 821 q 663 807 651 821 q 674 782 674 793 q 656 755 674 771 q 465 605 517 642 q 631 554 559 605 q 702 447 702 503 q 777 267 777 386 q 671 65 777 147 q 380 -18 565 -18 q 94 70 195 -18 q 8 257 8 147 q 80 431 8 367 q 212 487 140 487 q 321 449 284 487 q 358 358 358 410 q 321 268 358 305 q 227 231 284 231 q 135 262 171 231 q 99 343 99 292 l 99 356 q 78 260 78 327 q 164 113 78 176 q 394 51 249 51 q 626 116 538 51 q 714 271 714 180 q 704 346 714 324 q 667 275 702 310 q 569 241 631 241 q 472 277 508 241 q 436 370 436 313 q 479 462 436 426 q 570 498 522 498 q 596 492 586 498 q 592 496 607 487 q 546 520 584 504 q 471 536 508 536 l 322 536 z "},"థ":{"ha":845,"x_min":8,"x_max":771,"o":"m 457 340 q 393 275 457 275 q 346 294 366 275 q 327 340 327 313 q 346 386 327 367 q 393 404 366 404 q 438 386 420 404 q 457 340 457 367 m 390 228 q 437 174 437 228 l 437 156 q 467 86 437 121 q 552 51 496 51 q 655 105 608 51 q 701 235 701 160 q 611 457 701 377 q 388 536 522 536 q 167 449 254 536 q 80 243 80 362 q 121 110 80 160 q 221 61 161 61 q 311 92 281 61 q 342 156 342 123 l 342 174 q 354 214 342 200 q 390 228 367 228 m 252 587 q 179 639 211 615 q 160 655 172 647 q 148 676 148 664 q 155 699 148 688 q 186 723 174 723 q 211 714 198 723 q 348 607 316 627 q 512 722 390 621 q 634 821 556 752 q 667 840 656 840 q 691 825 678 840 q 704 797 704 811 q 682 765 704 782 q 586 684 637 725 q 479 599 535 643 q 698 473 616 578 q 771 252 771 380 q 706 52 771 125 q 535 -21 642 -21 q 444 10 484 -21 q 383 85 404 40 q 326 16 367 45 q 223 -13 286 -13 q 66 59 125 -13 q 8 247 8 131 q 75 456 8 362 q 252 587 142 549 m 385 65 q 429 -60 429 -38 q 416 -101 429 -81 q 378 -121 402 -121 q 339 -103 353 -121 q 326 -59 326 -85 q 351 2 326 -45 q 385 65 377 49 z "},"ద":{"ha":845,"x_min":8,"x_max":771,"o":"m 390 228 q 437 174 437 228 l 437 156 q 467 86 437 121 q 552 51 496 51 q 655 105 608 51 q 701 235 701 160 q 611 457 701 377 q 388 536 522 536 q 167 449 254 536 q 80 243 80 362 q 121 110 80 160 q 221 61 161 61 q 311 92 281 61 q 342 156 342 123 l 342 174 q 354 214 342 200 q 390 228 367 228 m 252 587 q 179 639 211 615 q 160 655 172 647 q 148 676 148 664 q 155 699 148 688 q 186 723 174 723 q 211 714 198 723 q 348 607 316 627 q 512 722 390 621 q 634 821 556 752 q 667 840 656 840 q 691 825 678 840 q 704 797 704 811 q 682 765 704 782 q 586 684 637 725 q 479 599 535 643 q 698 473 616 578 q 771 252 771 380 q 706 52 771 125 q 535 -21 642 -21 q 444 10 484 -21 q 383 85 404 40 q 326 16 367 45 q 223 -13 286 -13 q 66 59 125 -13 q 8 247 8 131 q 75 456 8 362 q 252 587 142 549 z "},"ధ":{"ha":845,"x_min":8,"x_max":771,"o":"m 390 228 q 437 174 437 228 l 437 156 q 467 86 437 121 q 552 51 496 51 q 655 105 608 51 q 701 235 701 160 q 611 457 701 377 q 388 536 522 536 q 167 449 254 536 q 80 243 80 362 q 121 110 80 160 q 221 61 161 61 q 311 92 281 61 q 342 156 342 123 l 342 174 q 354 214 342 200 q 390 228 367 228 m 252 587 q 179 639 211 615 q 160 655 172 647 q 148 676 148 664 q 155 699 148 688 q 186 723 174 723 q 211 714 198 723 q 348 607 316 627 q 512 722 390 621 q 634 821 556 752 q 667 840 656 840 q 691 825 678 840 q 704 797 704 811 q 682 765 704 782 q 586 684 637 725 q 479 599 535 643 q 698 473 616 578 q 771 252 771 380 q 706 52 771 125 q 535 -21 642 -21 q 444 10 484 -21 q 383 85 404 40 q 326 16 367 45 q 223 -13 286 -13 q 66 59 125 -13 q 8 247 8 131 q 75 456 8 362 q 252 587 142 549 m 386 73 q 431 -52 431 -30 q 417 -93 431 -73 q 379 -113 404 -113 q 341 -95 354 -113 q 327 -57 327 -77 q 353 10 327 -38 q 386 73 378 57 z "},"న":{"ha":811,"x_min":8,"x_max":738,"o":"m 428 605 q 650 514 562 605 q 738 279 738 423 q 669 60 738 136 q 502 -16 600 -16 q 356 45 404 -16 q 294 195 319 89 q 259 268 279 247 q 182 292 230 292 q 106 263 134 292 q 78 174 78 233 q 140 72 78 115 q 201 18 201 29 q 158 -18 201 -18 q 61 49 115 -18 q 8 189 8 117 q 61 313 8 262 q 176 364 115 364 q 282 336 238 364 q 342 267 326 308 q 388 134 364 201 q 421 78 409 91 q 500 56 447 56 q 623 121 575 56 q 670 270 670 187 q 602 461 670 385 q 429 536 533 536 l 238 536 q 73 640 195 546 q 62 663 62 651 q 70 688 62 675 q 101 707 89 707 q 128 694 112 707 l 233 611 l 238 611 l 501 819 q 543 840 528 840 q 568 827 557 840 q 578 799 578 814 q 556 768 578 784 l 340 605 l 428 605 z "},"ప":{"ha":837,"x_min":8,"x_max":763,"o":"m 763 273 q 690 63 763 147 q 514 -21 618 -21 q 359 73 410 -21 q 297 12 345 42 q 198 -18 249 -18 q 61 33 115 -18 q 8 164 8 83 q 61 297 8 246 q 198 348 115 348 q 292 327 254 348 q 349 273 330 307 q 384 189 367 239 q 416 111 401 139 q 461 67 431 83 q 524 51 490 51 q 639 118 589 51 q 690 289 690 185 q 634 465 690 393 q 495 536 578 536 q 463 571 463 536 q 496 605 463 605 q 675 527 600 605 q 763 273 763 436 m 191 51 q 214 51 191 51 q 271 85 238 51 q 305 168 305 120 q 271 251 305 216 q 191 286 238 286 q 110 252 144 286 q 77 171 77 219 q 110 87 77 123 q 191 51 144 51 m 496 824 q 506 799 506 811 q 489 774 506 787 q 263 599 359 664 q 166 554 196 559 q 112 568 129 554 l 35 634 q 8 670 8 656 q 22 696 8 683 q 49 709 35 709 q 81 693 64 709 q 112 669 99 677 q 171 621 148 635 q 433 821 206 632 q 465 838 449 838 q 496 824 482 838 z "},"ఫ":{"ha":837,"x_min":8,"x_max":763,"o":"m 763 273 q 690 63 763 147 q 514 -21 618 -21 q 359 73 410 -21 q 297 12 345 42 q 198 -18 249 -18 q 61 33 115 -18 q 8 164 8 83 q 61 297 8 246 q 198 348 115 348 q 292 327 254 348 q 349 273 330 307 q 384 189 367 239 q 416 111 401 139 q 461 67 431 83 q 524 51 490 51 q 639 118 589 51 q 690 289 690 185 q 634 465 690 393 q 495 536 578 536 q 463 571 463 536 q 496 605 463 605 q 675 527 600 605 q 763 273 763 436 m 191 51 q 214 51 191 51 q 271 85 238 51 q 305 168 305 120 q 271 251 305 216 q 191 286 238 286 q 110 252 144 286 q 77 171 77 219 q 110 87 77 123 q 191 51 144 51 m 496 824 q 506 799 506 811 q 489 774 506 787 q 263 599 359 664 q 166 554 196 559 q 112 568 129 554 l 35 634 q 8 670 8 656 q 22 696 8 683 q 49 709 35 709 q 81 693 64 709 q 112 669 99 677 q 171 621 148 635 q 433 821 206 632 q 465 838 449 838 q 496 824 482 838 m 362 65 q 385 2 366 54 q 404 -65 404 -49 q 391 -101 404 -81 q 354 -121 378 -121 q 315 -103 329 -121 q 302 -59 302 -85 q 326 2 302 -45 q 362 65 351 49 z "},"బ":{"ha":843,"x_min":8,"x_max":769,"o":"m 426 184 q 535 51 426 51 q 651 116 603 51 q 699 284 699 180 q 631 458 699 388 q 477 528 562 528 q 436 560 436 528 q 477 595 436 595 q 677 519 597 595 q 769 290 769 433 q 700 63 769 147 q 527 -21 631 -21 q 433 12 473 -21 q 383 83 394 45 q 192 -18 335 -18 q 64 32 120 -18 q 8 156 8 81 q 86 314 8 262 q 238 358 110 329 q 324 429 324 377 q 290 508 324 482 q 208 533 255 533 q 135 512 161 533 q 103 463 109 490 q 94 409 97 436 q 57 388 85 388 q 22 423 22 388 q 73 556 22 508 q 209 603 125 603 q 344 557 294 603 q 394 429 394 511 q 286 303 394 338 q 153 262 219 283 q 100 221 110 239 q 89 158 89 203 q 125 85 89 113 q 217 56 160 56 q 310 96 275 56 q 345 195 345 136 q 388 241 345 241 q 426 184 426 241 z "},"భ":{"ha":892,"x_min":8,"x_max":819,"o":"m 426 184 q 535 51 426 51 q 651 116 603 51 q 699 290 699 180 q 659 468 699 399 q 530 536 618 536 l 463 554 q 402 594 428 568 q 358 640 396 599 q 331 665 346 650 q 316 693 316 680 q 326 715 316 706 q 349 725 335 725 q 370 714 362 725 l 485 603 l 512 603 l 754 822 q 783 838 766 838 q 809 828 800 838 q 819 802 819 817 q 806 776 819 787 q 603 603 707 680 l 592 594 q 726 493 682 570 q 769 305 769 417 q 702 65 769 150 q 527 -21 634 -21 q 433 12 473 -21 q 383 83 394 45 q 192 -18 335 -18 q 64 32 120 -18 q 8 156 8 81 q 86 314 8 262 q 238 358 110 329 q 324 429 324 377 q 290 508 324 482 q 208 533 255 533 q 135 512 161 533 q 103 463 109 490 q 94 409 97 436 q 57 388 85 388 q 22 423 22 388 q 73 556 22 508 q 209 603 125 603 q 344 557 294 603 q 394 429 394 511 q 286 303 394 338 q 153 262 219 283 q 100 221 110 239 q 89 158 89 203 q 125 85 89 113 q 217 56 160 56 q 310 96 275 56 q 345 195 345 136 q 388 241 345 241 q 426 184 426 241 m 383 73 q 428 -52 428 -30 q 414 -93 428 -73 q 376 -113 401 -113 q 338 -95 351 -113 q 324 -57 324 -77 q 350 10 324 -38 q 383 73 375 57 z "},"మ":{"ha":1221,"x_min":8,"x_max":1148,"o":"m 187 49 q 268 80 235 49 q 302 160 302 110 q 267 244 302 211 q 185 278 231 278 q 107 244 139 278 q 75 164 75 211 q 107 83 75 117 q 187 49 139 49 m 739 243 q 783 101 739 156 q 901 46 827 46 q 1029 109 975 46 q 1082 293 1082 171 q 1017 482 1082 415 q 883 533 961 533 q 834 542 845 533 q 824 568 824 551 q 891 603 824 603 q 1058 527 985 603 q 1148 283 1148 436 q 1076 52 1148 131 q 886 -27 1004 -27 q 777 9 825 -27 q 704 113 728 45 q 623 18 675 56 q 512 -21 570 -21 q 409 10 453 -21 q 351 75 366 40 q 287 10 329 42 q 180 -21 244 -21 q 62 28 117 -21 q 8 158 8 77 q 60 293 8 239 q 184 346 112 346 q 292 318 255 346 q 343 259 313 302 q 394 136 372 180 q 507 51 436 51 q 626 118 578 51 q 674 270 674 185 q 613 465 674 393 q 471 536 552 536 l 230 536 l 86 632 q 69 666 69 640 q 72 682 69 672 q 105 701 86 701 q 128 698 125 701 l 223 619 l 255 619 l 498 817 q 535 837 519 837 q 563 823 551 837 q 575 796 575 809 q 546 760 575 782 l 346 605 l 479 605 q 672 501 595 605 q 741 273 741 402 l 739 243 z "},"య":{"ha":1574,"x_min":8,"x_max":1501,"o":"m 340 51 q 394 51 340 51 q 517 121 447 51 q 587 299 587 190 q 516 473 587 409 q 335 536 444 536 q 152 468 227 536 q 78 295 78 399 q 156 121 78 190 q 340 51 233 51 m 1090 239 q 1136 101 1090 156 q 1253 46 1181 46 q 1379 109 1325 46 q 1434 293 1434 171 q 1367 482 1434 415 q 1234 533 1312 533 q 1186 542 1196 533 q 1177 568 1177 551 q 1244 603 1177 603 q 1411 527 1336 603 q 1501 283 1501 436 q 1428 52 1501 131 q 1237 -27 1355 -27 q 1127 7 1178 -27 q 1049 110 1076 42 q 956 15 1015 51 q 821 -21 897 -21 q 686 18 744 -21 q 605 115 629 56 q 494 15 552 51 q 322 -21 436 -21 q 108 66 208 -21 q 8 279 8 153 q 100 519 8 433 q 334 605 192 605 q 568 516 476 605 q 661 295 661 428 l 661 208 q 705 97 661 145 q 813 49 749 49 q 964 113 910 49 q 1019 295 1019 176 q 950 482 1019 415 q 822 536 891 536 l 730 536 l 720 535 q 664 551 685 535 l 587 615 q 562 651 562 639 q 575 677 562 664 q 602 690 587 690 q 634 674 616 690 q 663 651 651 659 q 720 603 698 619 l 728 605 q 987 805 798 642 q 1019 819 1003 819 q 1047 806 1036 819 q 1058 782 1058 793 q 972 694 1058 765 q 843 599 897 635 q 1030 502 964 580 q 1095 294 1095 425 l 1090 239 z "},"ర":{"ha":736,"x_min":8,"x_max":663,"o":"m 340 51 q 394 51 340 51 q 517 118 447 51 q 587 292 587 185 q 516 468 587 399 q 338 536 444 536 q 159 468 233 536 q 85 299 85 399 q 159 125 85 200 q 340 51 233 51 m 216 587 l 201 597 l 123 675 q 113 695 113 683 q 121 717 113 707 q 144 726 129 726 q 166 720 158 726 l 284 605 l 292 605 l 308 607 l 549 825 q 579 840 562 840 q 604 830 595 840 q 613 805 613 821 q 600 781 613 790 q 399 607 481 664 l 394 600 q 663 281 655 572 q 565 66 655 150 q 338 -18 476 -18 q 105 72 201 -18 q 8 294 8 161 q 66 474 8 393 q 216 587 125 556 z "},"ఱ":{"ha":912,"x_min":8,"x_max":838,"o":"m 254 398 q 312 417 289 398 q 335 473 335 437 q 309 531 335 509 q 253 552 283 552 q 199 529 223 552 q 174 473 174 506 q 196 418 174 439 q 254 398 219 398 m 415 69 q 254 -13 369 -13 q 73 71 139 -13 q 8 299 8 155 q 69 529 8 444 q 247 615 131 615 q 359 569 324 615 q 394 465 394 524 q 354 369 394 407 q 256 330 313 330 q 156 365 200 330 q 113 457 113 399 q 112 463 113 474 q 92 405 105 450 q 78 310 78 359 q 128 129 78 201 q 254 56 177 56 q 342 89 310 56 q 375 172 375 123 q 410 220 375 220 q 449 211 441 220 q 458 166 458 201 q 492 93 458 131 q 601 56 527 56 q 722 122 675 56 q 768 305 768 188 q 722 479 768 421 q 616 536 675 536 q 555 508 581 536 q 528 436 528 479 q 560 358 528 393 q 636 317 592 324 q 680 275 680 310 q 668 238 680 249 q 639 227 656 227 l 257 227 q 212 263 212 227 q 254 297 212 297 l 519 297 q 485 337 496 324 q 455 443 455 378 q 499 560 455 508 q 631 611 543 611 q 778 532 718 611 q 838 291 838 452 q 754 49 838 131 q 584 -21 688 -21 q 477 6 525 -21 q 415 69 429 32 z "},"ల":{"ha":801,"x_min":8,"x_max":728,"o":"m 91 405 q 78 324 78 375 q 153 131 78 211 q 372 51 228 51 q 592 142 516 51 q 658 317 658 216 q 611 476 658 418 q 474 533 564 533 q 436 572 436 533 q 487 611 436 611 q 637 548 570 611 q 728 309 728 461 q 627 69 728 156 q 368 -18 527 -18 q 109 75 209 -18 q 8 322 8 168 q 81 531 8 452 q 263 610 155 610 q 373 564 329 610 q 417 442 417 517 q 370 325 417 367 q 259 283 324 283 q 145 318 193 283 q 91 405 97 353 m 251 351 q 270 351 251 351 q 317 377 289 351 q 345 443 345 402 q 317 510 345 484 q 251 536 289 536 q 185 509 212 536 q 158 444 158 482 q 185 378 158 405 q 251 351 212 351 z "},"ళ":{"ha":848,"x_min":8,"x_max":774,"o":"m 171 148 q 341 46 171 46 q 511 144 511 46 q 464 214 511 187 q 338 241 417 241 q 171 148 171 241 m 259 485 q 187 552 259 552 q 133 533 153 552 q 112 485 112 514 q 187 420 112 420 q 239 437 220 420 q 259 485 259 455 m 176 270 q 8 453 8 316 q 56 567 8 527 q 182 607 104 607 q 295 567 260 607 q 326 485 326 536 q 174 366 326 366 q 91 398 120 366 q 172 340 97 367 q 360 313 247 313 q 545 347 473 313 q 618 440 618 382 q 586 517 618 498 q 471 536 554 536 l 439 536 q 375 552 407 528 l 267 627 q 251 655 251 639 q 260 678 251 670 q 290 696 271 696 q 316 686 308 696 l 421 603 l 441 603 l 704 817 q 740 832 728 832 q 763 819 752 832 q 774 791 774 806 q 758 761 774 776 q 652 679 714 725 q 548 602 591 634 q 696 445 696 586 q 509 265 696 311 q 589 144 589 228 q 509 14 589 61 q 325 -21 441 -21 q 145 38 209 -21 q 89 153 89 86 q 121 227 89 188 q 176 270 153 267 z "},"ఴ":{"ha":897,"x_min":8,"x_max":824,"o":"m 415 72 q 413 75 415 73 l 413 70 l 415 72 m 254 398 q 312 417 289 398 q 335 473 335 437 q 309 531 335 509 q 253 552 283 552 q 199 529 223 552 q 174 473 174 506 q 196 418 174 439 q 254 398 219 398 m 496 473 q 496 455 496 473 q 520 417 496 437 q 578 398 543 398 q 635 418 613 398 q 658 473 658 439 q 633 529 658 506 q 579 552 608 552 q 523 531 549 552 q 496 473 496 509 m 824 299 q 824 227 824 299 q 758 71 824 155 q 580 -13 693 -13 q 417 70 466 -13 q 253 -13 367 -13 q 73 71 139 -13 q 8 299 8 155 q 69 529 8 444 q 247 615 131 615 q 359 569 324 615 q 394 465 394 524 q 354 369 394 407 q 256 330 313 330 q 156 365 200 330 q 113 457 113 399 q 112 463 113 474 q 92 405 105 450 q 78 310 78 359 q 128 129 78 201 q 254 56 177 56 q 342 89 310 56 q 375 172 375 123 q 410 220 375 220 q 449 211 441 220 q 458 185 458 201 q 457 161 458 169 q 489 89 460 121 q 580 56 522 56 q 704 129 655 56 q 754 310 754 201 q 741 405 754 359 q 720 466 728 450 q 718 457 718 474 q 675 365 718 399 q 576 330 632 330 q 479 369 519 330 q 439 465 439 407 q 468 564 439 524 q 584 615 508 615 q 762 529 701 615 q 824 299 824 444 z "},"వ":{"ha":814,"x_min":8,"x_max":741,"o":"m 672 501 q 741 275 741 402 q 669 63 741 147 q 514 -21 597 -21 q 409 10 453 -21 q 351 75 366 40 q 287 10 329 42 q 180 -21 244 -21 q 62 28 117 -21 q 8 158 8 77 q 60 293 8 239 q 184 346 112 346 q 292 318 255 346 q 343 259 313 302 q 394 136 372 180 q 507 51 436 51 q 626 118 578 51 q 674 270 674 185 q 613 465 674 393 q 471 536 552 536 l 230 536 l 86 632 q 69 666 69 640 q 72 682 69 672 q 112 701 86 701 l 126 701 q 128 698 128 699 l 223 619 l 255 619 l 498 817 q 535 837 519 837 q 563 823 551 837 q 575 796 575 809 q 546 760 575 782 l 346 605 l 479 605 q 672 501 595 605 m 187 49 q 268 80 235 49 q 302 160 302 110 q 267 244 302 211 q 185 278 231 278 q 107 244 139 278 q 75 164 75 211 q 107 83 75 117 q 187 49 139 49 z "},"శ":{"ha":782,"x_min":8,"x_max":709,"o":"m 629 187 q 535 337 629 289 q 359 271 447 305 q 271 160 271 231 q 318 80 271 113 q 445 46 364 46 q 578 86 527 46 q 629 187 629 126 m 8 254 q 82 397 8 343 q 291 450 156 450 q 528 407 426 450 q 573 438 556 423 q 591 480 591 453 q 573 517 591 506 q 463 536 543 536 l 369 538 q 307 554 338 530 l 200 629 q 182 656 182 640 q 192 682 182 672 q 220 699 201 699 q 247 688 238 699 l 353 605 l 370 605 l 640 819 q 676 835 664 835 q 698 821 688 835 q 709 792 709 808 q 694 763 709 776 l 481 605 q 619 571 576 605 q 661 484 661 536 q 603 372 661 412 q 702 209 702 295 q 635 42 702 104 q 429 -21 567 -21 q 263 31 327 -21 q 198 182 198 83 q 267 299 198 252 q 431 367 335 345 q 291 380 359 380 q 126 345 172 380 q 91 251 91 316 q 49 203 91 203 q 21 218 34 203 q 8 254 8 233 z "},"ష":{"ha":905,"x_min":8,"x_max":832,"o":"m 663 26 q 536 -21 603 -21 q 421 13 469 -21 q 359 89 374 46 q 301 14 346 49 q 203 -21 255 -21 q 62 33 117 -21 q 8 163 8 86 q 59 296 8 239 q 195 353 110 353 q 337 276 287 353 q 373 214 358 244 q 405 150 388 184 q 453 73 418 101 q 533 46 489 46 q 658 136 613 46 q 693 302 693 206 q 636 467 693 398 q 495 536 580 536 q 463 571 463 536 q 496 605 463 605 q 678 516 595 605 q 760 279 760 426 q 746 133 760 235 q 733 22 733 32 q 782 -81 733 -45 q 832 -123 832 -118 q 796 -166 832 -166 q 711 -105 760 -166 q 663 26 663 -43 m 193 46 q 219 46 193 46 q 276 81 244 46 q 308 166 308 115 q 275 254 308 217 q 192 291 241 291 q 109 254 144 291 q 73 166 73 217 q 108 81 73 115 q 193 46 142 46 m 496 824 q 506 799 506 811 q 489 774 506 787 q 263 599 359 664 q 166 554 196 559 q 112 568 129 554 l 35 634 q 8 670 8 656 q 22 696 8 683 q 49 709 35 709 q 81 693 64 709 q 112 669 99 677 q 171 621 148 635 q 433 821 206 632 q 465 838 449 838 q 496 824 482 838 z "},"స":{"ha":819,"x_min":8,"x_max":746,"o":"m 656 520 q 746 275 746 425 q 674 53 746 126 q 496 -21 602 -21 q 316 91 374 -21 q 303 134 311 97 q 271 236 284 203 q 179 299 247 299 q 113 271 142 299 q 83 192 83 243 q 142 74 83 121 q 201 16 201 27 q 160 -16 201 -16 q 64 50 120 -16 q 8 195 8 117 q 59 321 8 273 q 174 369 110 369 q 283 340 238 369 q 343 275 327 311 q 382 137 362 206 q 500 51 415 51 q 631 115 584 51 q 677 271 677 179 q 646 422 677 364 q 562 506 615 481 q 504 528 533 522 q 461 540 476 535 q 445 565 445 544 q 487 603 445 603 q 656 520 583 603 m 496 824 q 506 799 506 811 q 489 774 506 787 q 263 599 359 664 q 166 554 196 559 q 112 568 129 554 l 35 634 q 8 670 8 656 q 22 696 8 683 q 49 709 35 709 q 81 693 64 709 q 112 669 99 677 q 171 621 148 635 q 433 821 206 632 q 465 838 449 838 q 496 824 482 838 z "},"హ":{"ha":1220,"x_min":8,"x_max":1146,"o":"m 991 362 q 1009 362 991 362 q 1054 386 1027 362 q 1082 453 1082 410 q 1054 519 1082 495 q 991 543 1027 543 q 928 519 955 543 q 900 453 900 495 q 928 386 900 410 q 991 362 955 362 m 191 51 q 214 51 191 51 q 271 85 238 51 q 305 168 305 120 q 271 251 305 216 q 191 286 238 286 q 110 252 144 286 q 77 171 77 219 q 110 87 77 123 q 191 51 144 51 m 666 536 q 735 432 707 498 q 763 273 763 366 q 690 63 763 147 q 514 -21 618 -21 q 359 73 410 -21 q 297 12 345 42 q 198 -18 249 -18 q 61 33 115 -18 q 8 164 8 83 q 61 297 8 246 q 198 348 115 348 q 292 327 254 348 q 349 273 330 307 q 384 189 367 239 q 416 111 401 139 q 461 67 431 83 q 524 51 490 51 q 639 118 589 51 q 690 289 690 185 q 634 465 690 393 q 495 536 578 536 q 463 571 463 536 q 496 605 463 605 l 988 605 q 1106 557 1065 605 q 1146 445 1146 509 q 1102 337 1146 382 q 991 292 1058 292 q 879 337 924 292 q 833 431 833 382 q 843 504 833 481 q 860 536 843 511 l 666 536 m 496 824 q 506 799 506 811 q 489 774 506 787 q 263 599 359 664 q 166 554 196 559 q 112 568 129 554 l 35 634 q 8 670 8 656 q 22 696 8 683 q 49 709 35 709 q 81 693 64 709 q 112 669 99 677 q 171 621 148 635 q 433 821 206 632 q 465 838 449 838 q 496 824 482 838 z "},"ఽ":{"ha":843,"x_min":8,"x_max":816,"o":"m 225 503 q 99 415 99 503 q 118 385 99 398 q 161 369 136 369 l 230 369 q 250 361 241 369 q 259 338 259 353 q 231 311 259 324 q 152 297 203 297 q 65 329 102 297 q 27 415 27 361 q 78 533 27 492 q 218 575 129 575 q 366 517 307 575 q 426 382 426 460 q 363 251 426 303 q 212 200 300 200 q 118 180 156 200 q 80 131 80 160 q 107 81 80 102 q 179 61 139 61 l 781 61 q 806 51 798 61 q 816 30 816 43 q 807 6 816 16 q 784 -3 798 -3 l 176 -3 q 59 35 105 -3 q 8 129 8 72 q 68 229 8 187 q 200 271 128 271 q 313 303 271 271 q 354 382 354 334 q 318 468 354 429 q 225 503 279 503 z "},"ా":{"ha":779,"x_min":0,"x_max":769,"o":"m 589 541 q 554 475 554 514 q 576 415 554 436 q 632 396 602 396 q 685 415 663 396 q 707 469 707 434 q 688 522 707 503 q 611 541 664 541 l 589 541 m 525 377 q 489 465 489 412 q 512 541 489 517 l 26 541 q 6 548 13 541 q 0 576 0 557 q 29 605 0 605 l 618 605 q 726 568 683 605 q 769 470 769 530 q 730 372 769 410 q 627 334 691 334 q 525 377 564 334 z "},"ి":{"ha":0,"x_min":-155,"x_max":216,"o":"m 43 752 q 65 805 65 776 q 29 870 65 859 q -14 873 13 873 q -67 851 -42 873 q -89 798 -89 829 q -70 749 -89 768 q -16 731 -49 731 q 43 752 18 731 m 209 739 q 156 597 216 650 q 16 544 97 544 q -109 568 -65 544 q -148 610 -148 587 q -140 638 -148 621 q -118 655 -131 655 q -86 642 -105 655 q 22 613 -42 613 q 119 651 85 613 q 153 738 153 690 q 141 813 153 785 q 113 848 129 840 q 123 787 123 833 q 85 706 123 741 q -10 669 48 669 q -111 703 -67 669 q -155 796 -155 738 q -112 894 -155 854 q 15 939 -69 939 q 156 883 99 939 q 209 739 216 830 z "},"ీ":{"ha":0,"x_min":-171,"x_max":235,"o":"m 27 725 q 49 777 49 749 q 13 843 49 832 q -30 846 -3 846 q -83 824 -57 846 q -105 771 -105 801 q -86 722 -105 741 q -32 704 -65 704 q 27 725 2 704 m 93 1081 q 11 999 18 1081 q 43 907 11 951 q 140 856 101 894 q 193 712 200 803 q 140 570 200 623 q 0 517 81 517 q -125 541 -81 517 q -164 583 -164 560 q -156 611 -164 594 q -134 627 -147 627 q -102 615 -121 627 q 6 586 -57 586 q 103 624 69 586 q 137 710 137 663 q 125 785 137 758 q 97 821 113 813 q 107 760 107 806 q 69 678 107 714 q -26 642 32 642 q -127 676 -83 642 q -171 769 -171 710 q -128 867 -171 827 q -83 899 -107 889 q -37 910 -59 908 q -64 1007 -64 945 q -21 1110 -64 1068 q 91 1153 22 1153 q 197 1112 160 1153 q 235 1007 235 1071 q 221 967 235 983 q 192 951 208 951 q 169 959 177 951 q 155 980 155 969 l 158 1019 q 142 1066 158 1049 q 93 1081 126 1081 z "},"ు":{"ha":343,"x_min":-115,"x_max":291,"o":"m 19 525 q 49 559 19 559 q 211 495 147 559 q 287 276 291 420 q 227 66 291 145 q 64 -13 163 -13 q -62 38 -10 -13 q -115 155 -115 85 q -105 197 -115 177 q -80 217 -94 217 q -56 206 -65 217 q -43 179 -43 195 q -14 93 -43 129 q 62 59 19 59 q 171 112 128 59 q 223 268 223 171 q 172 430 223 366 q 48 495 121 495 q 28 503 37 495 q 19 525 19 511 z "},"ూ":{"ha":655,"x_min":-105,"x_max":631,"o":"m 65 493 q 32 527 32 493 q 57 559 32 559 l 468 559 q 582 520 533 559 q 631 421 631 481 q 584 322 631 361 q 479 284 543 284 q 375 327 415 284 q 340 417 340 362 q 362 495 340 473 l 208 495 q 278 402 247 461 q 308 265 308 343 q 238 62 308 136 q 73 -10 174 -10 q -53 45 0 -10 q -105 172 -105 96 q -97 206 -105 195 q -74 217 -89 217 q -46 206 -59 217 q -34 179 -34 195 q -3 94 -34 131 q 75 62 30 62 q 188 112 148 62 q 236 275 236 166 q 176 447 236 385 q 65 493 126 493 m 439 495 q 410 429 410 474 q 431 364 410 385 q 482 346 452 346 q 536 366 512 346 q 559 418 559 385 q 461 495 559 495 l 439 495 z "},"ృ":{"ha":359,"x_min":-107,"x_max":318,"o":"m 270 -278 q 97 -374 212 -374 q -48 -320 11 -374 q -107 -187 -107 -267 q -69 -57 -107 -107 q 48 2 -27 2 q 131 -35 101 2 q 163 -115 163 -67 q 133 -193 163 -163 q 60 -227 104 -227 q -13 -212 16 -227 q -51 -174 -42 -195 q -11 -271 -51 -230 q 100 -313 32 -313 q 212 -251 168 -313 q 257 -67 257 -184 q 219 134 257 49 q 96 314 169 241 q 65 357 65 343 q 76 381 65 370 q 101 391 86 391 q 261 168 204 289 q 311 -73 318 48 q 270 -278 318 -200 m -29 -115 q 46 -171 -16 -171 q 85 -155 69 -171 q 102 -115 102 -139 q 88 -73 102 -91 q 43 -56 70 -56 q -29 -115 -14 -56 z "},"ౄ":{"ha":714,"x_min":-104,"x_max":672,"o":"m 404 327 l 177 327 l 177 326 q 321 -73 321 147 q 273 -278 321 -200 q 101 -374 216 -374 q -45 -320 14 -374 q -104 -187 -104 -267 q -65 -57 -104 -107 q 51 2 -24 2 q 134 -35 104 2 q 166 -115 166 -67 q 136 -193 166 -163 q 63 -227 107 -227 q -10 -212 19 -227 q -48 -174 -38 -195 q -8 -271 -48 -230 q 103 -313 35 -313 q 216 -251 171 -313 q 260 -67 260 -184 q 222 133 260 49 q 126 284 184 217 q 89 321 113 302 q 65 357 65 340 q 73 382 64 374 q 97 393 81 393 l 512 393 q 626 351 581 393 q 672 247 672 311 q 631 143 672 184 q 523 102 591 102 q 413 147 455 102 q 375 236 375 185 q 404 332 375 297 l 404 327 m 482 326 q 444 243 444 299 q 469 187 444 208 q 527 166 495 166 q 583 186 559 166 q 607 243 607 206 q 587 302 607 281 q 506 326 562 326 l 482 326 m -26 -115 q 49 -171 -13 -171 q 89 -155 72 -171 q 105 -115 105 -139 q 91 -73 105 -91 q 46 -56 73 -56 q -26 -115 -11 -56 z "},"ె":{"ha":0,"x_min":-316,"x_max":268,"o":"m -172 573 q -140 607 -172 607 l 142 607 q 188 624 166 607 q 209 671 209 645 q 186 718 209 698 q 128 738 163 738 l -279 738 q -305 746 -294 738 q -316 769 -316 754 q -310 795 -316 785 q -273 805 -299 805 l 123 805 q 230 766 185 805 q 267 675 267 741 q 231 578 268 610 q 128 538 190 538 l -134 538 q -163 545 -153 538 q -172 573 -172 552 z "},"ే":{"ha":0,"x_min":-316,"x_max":313,"o":"m -172 573 q -140 607 -172 607 l 142 607 q 188 624 166 607 q 209 671 209 645 q 186 718 209 698 q 128 738 163 738 l -279 738 q -305 746 -294 738 q -316 769 -316 754 q -310 795 -316 785 q -273 805 -299 805 l 69 805 q 26 912 26 851 q 70 1012 26 972 q 176 1052 112 1052 q 279 1009 239 1052 q 313 913 313 969 q 305 881 313 894 q 276 865 292 865 q 252 873 260 865 q 239 892 239 881 q 241 913 239 904 l 241 929 q 223 974 241 956 q 172 990 204 990 q 117 967 139 990 q 96 913 96 945 q 166 801 96 851 l 166 800 q 230 766 201 790 q 267 675 267 741 q 231 578 268 610 q 128 538 190 538 l -134 538 q -163 545 -153 538 q -172 573 -172 552 z "},"ై":{"ha":921,"x_min":225,"x_max":910,"o":"m 311 -155 q 294 -203 294 -174 q 310 -249 294 -231 q 374 -267 330 -267 l 391 -267 q 418 -211 418 -246 q 401 -156 418 -176 q 354 -140 380 -140 q 311 -155 329 -140 m 910 -302 q 875 -334 910 -334 l 369 -334 q 267 -298 308 -334 q 225 -205 225 -262 q 265 -113 225 -148 q 361 -78 300 -78 q 458 -118 421 -78 q 492 -196 492 -150 q 474 -270 492 -243 l 873 -270 q 900 -279 889 -270 q 910 -302 910 -287 m 370 573 q 402 607 370 607 l 685 607 q 731 624 709 607 q 752 671 752 645 q 729 718 752 698 q 670 738 706 738 l 263 738 q 238 746 249 738 q 227 769 227 754 q 233 795 227 785 q 270 805 244 805 l 666 805 q 773 766 728 805 q 810 675 809 741 q 774 578 811 610 q 670 538 733 538 l 409 538 q 380 545 390 538 q 370 573 370 552 z "},"ొ":{"ha":805,"x_min":-235,"x_max":765,"o":"m 405 675 q 564 738 453 738 q 701 685 647 738 q 765 521 765 626 q 718 369 765 417 q 603 321 672 321 q 495 362 533 321 q 453 465 453 404 q 494 574 453 527 q 592 621 535 621 q 693 575 658 621 q 651 642 683 610 q 563 670 615 670 q 478 648 511 670 q 433 592 445 626 q 395 557 413 557 q 366 568 377 557 q 358 594 358 580 q 303 723 358 669 q 86 792 230 792 q -99 760 -24 792 q -174 688 -174 731 q -122 641 -174 661 q 8 621 -70 621 l 42 621 q 65 611 54 621 q 77 590 77 602 q 67 568 77 578 q 45 557 57 557 l 5 557 q -164 595 -94 557 q -235 694 -235 634 q -140 801 -235 754 q 79 846 -46 846 q 284 809 204 846 q 405 675 370 765 m 541 409 q 603 385 567 385 q 664 413 640 385 q 688 467 688 441 q 686 500 688 493 q 602 557 661 557 q 544 536 568 557 q 520 472 520 511 q 541 409 520 433 z "},"ో":{"ha":808,"x_min":-231,"x_max":768,"o":"m 696 848 q 634 905 696 905 q 583 889 602 905 q 560 830 564 870 q 583 754 560 789 q 709 696 659 749 q 768 536 768 639 q 722 386 768 434 q 606 338 675 338 q 498 380 536 338 q 457 483 457 421 q 497 591 457 544 q 595 639 538 639 q 696 592 661 639 q 655 659 686 627 q 566 688 618 688 q 481 666 514 688 q 436 610 449 643 q 398 575 417 575 q 369 586 380 575 q 361 611 361 597 q 307 741 361 686 q 89 809 233 809 q -96 777 -21 809 q -171 706 -171 749 q -120 659 -171 678 q 2 639 -72 639 l 53 639 q 78 629 67 639 q 89 607 89 619 q 77 584 89 595 q 56 575 69 575 l 0 575 q -164 613 -96 575 q -231 711 -231 651 q -137 819 -231 771 q 82 864 -43 864 q 287 827 208 864 q 409 693 374 782 q 514 750 450 741 q 492 839 492 784 q 530 931 492 894 q 634 972 570 972 q 731 931 698 972 q 766 838 766 897 q 754 801 766 816 q 726 787 741 787 q 704 797 712 787 q 693 813 693 805 l 696 848 m 544 426 q 607 402 570 402 q 667 430 643 402 q 691 485 691 458 q 690 517 691 511 q 605 575 664 575 q 548 554 572 575 q 524 489 524 528 q 544 426 524 450 z "},"ౌ":{"ha":658,"x_min":-263,"x_max":618,"o":"m -236 747 q -263 781 -263 747 q -254 800 -263 792 q -231 809 -246 809 l 468 809 q 581 765 541 809 q 618 668 618 726 q 575 567 618 610 q 473 524 535 524 q 372 566 410 524 q 334 663 334 608 q 364 747 334 720 l 187 747 q 207 718 203 730 q 211 686 211 707 q 171 597 211 634 q 80 559 134 559 l -110 559 q -140 591 -140 559 q -133 613 -140 603 q -110 623 -125 623 l 80 623 q 131 640 109 621 q 148 687 148 661 q 131 731 148 714 q 88 747 112 747 l -236 747 m 442 747 q 396 666 396 720 q 417 610 396 631 q 476 591 439 591 q 557 667 557 591 q 540 723 557 699 q 477 747 517 747 l 442 747 z "},"్":{"ha":0,"x_min":-211,"x_max":423,"o":"m -163 760 q -211 845 -211 789 q -179 932 -211 900 q -89 969 -145 969 l 377 969 q 406 963 396 969 q 417 950 417 956 q 413 907 423 916 q 382 897 404 897 l -77 897 q -129 884 -115 897 q -142 847 -142 872 q -123 809 -142 822 q -70 795 -104 795 l 209 795 q 236 784 227 795 q 246 758 246 776 q 235 733 246 741 q 212 723 227 723 l -77 723 q -137 669 -137 723 q -75 615 -137 615 l 136 615 q 161 605 153 615 q 172 583 172 597 q 164 559 172 570 q 134 548 155 548 l -78 548 q -168 586 -133 548 q -208 675 -208 621 q -196 722 -208 694 q -163 760 -185 749 z "},"ౕ":{"ha":244,"x_min":0,"x_max":252,"o":"m 38 904 q 132 947 75 947 q 220 924 188 947 q 252 867 252 902 q 241 849 252 857 q 219 841 230 841 q 198 852 208 841 q 185 865 193 862 q 136 883 168 883 q 85 865 105 883 q 64 817 64 843 q 107 718 64 752 l 30 720 q 9 765 18 734 q 0 813 0 795 q 38 904 0 867 z "},"ౖ":{"ha":0,"x_min":-319,"x_max":348,"o":"m -233 -155 q -251 -203 -251 -174 q -235 -249 -251 -231 q -171 -267 -214 -267 l -153 -267 q -126 -211 -126 -246 q -144 -156 -126 -176 q -190 -140 -164 -140 q -233 -155 -216 -140 m 348 -302 q 313 -334 348 -334 l -176 -334 q -278 -298 -236 -334 q -319 -205 -319 -262 q -279 -113 -319 -148 q -184 -78 -244 -78 q -86 -118 -123 -78 q -53 -196 -53 -150 q -70 -270 -53 -243 l 311 -270 q 338 -279 327 -270 q 348 -302 348 -287 z "},"ౘ":{"ha":865,"x_min":8,"x_max":816,"o":"m 313 552 l 236 616 q 209 654 209 640 q 223 680 209 667 q 251 693 236 693 q 282 677 265 693 q 311 653 299 661 q 370 605 350 621 l 377 605 q 635 806 429 631 q 669 821 651 821 q 697 807 686 821 q 707 782 707 793 q 691 757 707 771 q 623 699 647 720 q 498 605 546 639 l 500 605 q 727 504 639 605 q 816 268 816 402 q 759 58 816 134 q 607 -18 702 -18 q 509 6 548 -18 q 455 67 471 30 q 385 -6 425 14 q 289 -18 354 -18 q 166 26 223 -18 q 109 160 109 70 q 129 244 109 206 q 172 302 148 283 l 42 302 q 8 329 8 302 q 43 369 8 369 l 300 369 q 351 321 351 369 q 300 286 351 286 q 214 252 249 286 q 179 164 179 219 q 211 77 179 109 q 299 45 243 45 q 390 79 356 45 q 425 179 425 113 q 433 227 425 216 q 471 238 442 238 q 493 169 493 238 q 608 51 493 51 q 710 105 674 51 q 747 244 747 160 q 648 484 747 407 q 503 536 580 536 l 369 536 q 313 552 332 536 m 489 897 q 469 975 469 931 q 503 1054 469 1019 q 599 1090 536 1090 q 698 1054 661 1090 q 736 963 736 1019 q 697 871 736 908 q 600 833 658 833 l 43 833 q 11 865 11 833 q 46 897 11 897 l 489 897 m 603 897 q 617 897 603 897 q 650 914 631 897 q 669 960 669 931 q 651 1007 669 990 q 606 1023 632 1023 q 560 1007 580 1023 q 541 963 541 990 q 559 916 541 936 q 603 897 576 897 z "},"ౙ":{"ha":821,"x_min":8,"x_max":771,"o":"m 485 570 q 576 615 485 615 q 716 564 667 615 q 765 437 765 512 q 712 317 765 362 q 564 271 659 271 q 448 299 500 271 q 374 366 396 327 q 299 307 354 330 q 153 267 225 286 q 104 236 118 251 q 83 157 83 211 q 121 74 83 104 q 220 45 158 45 q 318 82 281 45 q 356 179 356 120 q 394 223 356 223 q 433 164 433 223 q 566 49 433 49 q 699 172 699 49 l 696 223 q 730 257 696 257 q 771 168 771 257 q 715 31 771 80 q 565 -18 659 -18 q 454 9 501 -18 q 394 70 407 35 q 332 8 364 30 q 205 -18 286 -18 q 70 24 125 -18 q 8 153 8 75 q 91 313 8 260 q 238 356 104 321 q 330 435 330 382 q 295 515 330 489 q 199 541 259 541 q 111 508 139 541 q 83 424 83 476 q 53 372 83 372 q 10 409 10 372 q 62 548 10 496 q 200 600 115 600 q 326 572 284 600 q 395 469 367 543 q 459 366 423 396 q 565 337 495 337 q 699 445 699 337 q 672 516 699 490 q 602 543 645 543 l 535 543 q 494 549 503 543 q 485 570 485 556 m 489 781 q 469 856 469 809 q 503 937 469 902 q 599 972 536 972 q 698 937 661 972 q 736 846 736 902 q 697 754 736 790 q 600 717 658 717 l 43 717 q 11 749 11 717 q 46 781 11 781 l 489 781 m 603 781 q 617 781 603 781 q 650 797 631 781 q 669 843 669 814 q 651 888 669 872 q 606 905 632 905 q 560 888 580 905 q 541 845 541 872 q 559 799 541 817 q 603 781 576 781 z "},"ౠ":{"ha":2002,"x_min":8,"x_max":1952,"o":"m 1885 453 q 1859 516 1885 489 q 1796 543 1833 543 q 1733 516 1759 543 q 1707 454 1707 490 q 1733 391 1707 418 q 1798 364 1759 364 q 1861 391 1836 364 q 1885 453 1885 418 m 426 184 q 535 51 426 51 q 651 116 603 51 q 699 284 699 180 q 631 458 699 388 q 477 528 562 528 q 436 560 436 528 q 477 595 436 595 q 677 519 597 595 q 769 278 769 433 l 769 265 q 813 109 769 171 q 930 46 856 46 q 1058 109 1004 46 q 1111 293 1111 171 q 1047 482 1111 415 q 912 533 991 533 q 864 542 875 533 q 854 568 854 551 q 921 603 854 603 q 1089 527 1015 603 q 1178 279 1178 436 q 1220 112 1178 177 q 1339 46 1263 46 q 1469 109 1414 46 q 1523 285 1523 171 q 1463 468 1523 399 q 1309 536 1403 536 l 1280 536 q 1240 570 1240 536 q 1260 603 1240 597 l 1274 605 l 1807 605 q 1911 560 1869 605 q 1952 447 1952 516 q 1906 338 1952 378 q 1797 299 1860 299 q 1687 338 1734 299 q 1640 441 1640 378 q 1670 536 1640 504 l 1491 536 q 1558 428 1529 501 q 1587 279 1587 354 q 1517 50 1587 128 q 1325 -27 1446 -27 q 1218 7 1268 -27 q 1143 105 1169 42 q 1055 9 1116 45 q 926 -27 995 -27 q 731 107 784 -27 q 527 -21 667 -21 q 433 12 473 -21 q 383 83 394 45 q 192 -18 335 -18 q 64 32 120 -18 q 8 156 8 81 q 86 314 8 262 q 238 358 110 329 q 324 429 324 377 q 290 508 324 482 q 208 533 255 533 q 135 512 161 533 q 103 463 109 490 q 94 409 97 436 q 57 388 85 388 q 22 423 22 388 q 73 556 22 508 q 209 603 125 603 q 344 557 294 603 q 394 429 394 511 q 286 303 394 338 q 153 262 219 283 q 100 221 110 239 q 89 158 89 203 q 125 85 89 113 q 217 56 160 56 q 310 96 275 56 q 345 195 345 136 q 388 241 345 241 q 426 184 426 241 z "},"ౡ":{"ha":1263,"x_min":8,"x_max":1224,"o":"m 1068 -200 q 1086 -200 1068 -200 q 1132 -174 1103 -200 q 1161 -107 1161 -148 q 1132 -41 1161 -65 q 1068 -16 1103 -16 q 1007 -41 1033 -16 q 980 -107 980 -65 q 1007 -174 980 -148 q 1068 -200 1033 -200 m 774 -24 l 777 -73 q 694 -267 777 -196 q 539 -324 624 -324 q 392 -251 453 -324 q 330 -104 330 -179 q 476 117 330 19 q 567 176 533 155 q 674 257 666 239 q 699 341 699 289 q 661 421 699 393 q 562 450 623 450 q 462 413 501 450 q 423 314 423 377 q 384 270 423 270 q 345 330 345 270 q 306 423 345 390 q 206 457 267 457 q 75 342 75 457 q 80 307 75 324 q 85 279 85 289 q 71 262 85 270 q 45 254 57 254 q 8 343 8 254 q 65 477 8 433 q 200 522 123 522 q 322 494 278 522 q 380 428 367 466 q 442 489 421 476 q 568 517 487 517 q 706 470 648 517 q 765 345 765 423 q 746 246 765 287 q 678 171 728 204 q 508 59 592 115 q 401 -89 401 -24 q 449 -207 401 -153 q 551 -260 496 -260 q 659 -208 605 -260 q 712 -77 712 -156 q 698 -5 712 -40 q 731 46 682 46 l 742 45 l 1063 45 q 1183 -3 1141 45 q 1224 -115 1224 -51 q 1181 -223 1224 -179 q 1070 -267 1137 -267 q 956 -223 1003 -267 q 910 -120 910 -179 q 915 -68 910 -85 q 937 -21 920 -51 l 774 -24 z "},"ౢ":{"ha":86,"x_min":-629,"x_max":-105,"o":"m -583 -228 l -575 -265 q -584 -282 -575 -276 q -602 -287 -594 -287 q -629 -226 -629 -287 q -590 -133 -629 -164 q -497 -102 -551 -102 q -413 -122 -444 -102 q -375 -166 -382 -142 q -326 -121 -348 -136 q -247 -107 -303 -107 q -152 -139 -192 -107 q -112 -217 -112 -171 q -124 -292 -112 -263 q -183 -352 -136 -321 q -287 -420 -230 -383 q -359 -520 -359 -476 q -327 -599 -359 -564 q -259 -635 -295 -635 q -186 -601 -222 -635 q -150 -511 -150 -567 q -160 -457 -150 -487 q -137 -428 -171 -428 q -110 -447 -113 -428 q -105 -509 -105 -476 q -161 -642 -105 -594 q -267 -680 -209 -680 q -367 -631 -326 -680 q -409 -531 -409 -583 q -379 -442 -409 -479 q -311 -379 -350 -405 q -249 -338 -271 -353 q -177 -284 -182 -297 q -160 -227 -160 -262 q -185 -173 -160 -193 q -251 -153 -211 -153 q -318 -179 -292 -153 q -345 -240 -345 -204 q -373 -276 -345 -276 q -401 -235 -401 -276 q -426 -172 -401 -195 q -493 -150 -452 -150 q -583 -228 -583 -150 z "},"ౣ":{"ha":86,"x_min":-787,"x_max":61,"o":"m -49 -615 q -6 -598 -26 -615 q 13 -552 13 -581 q -6 -507 13 -524 q -49 -490 -26 -490 q -92 -507 -73 -490 q -110 -552 -110 -524 q -92 -598 -110 -581 q -49 -615 -73 -615 m -48 -664 q -71 -664 -48 -664 q -127 -634 -94 -664 q -160 -564 -160 -603 q -142 -493 -160 -524 l -252 -495 l -249 -528 q -308 -664 -249 -615 q -417 -702 -358 -702 q -520 -653 -477 -702 q -562 -550 -562 -603 q -532 -459 -562 -496 q -461 -395 -501 -421 q -399 -354 -421 -369 q -324 -299 -327 -307 q -307 -241 -307 -276 q -333 -186 -307 -206 q -402 -166 -359 -166 q -470 -191 -444 -166 q -496 -253 -496 -216 q -524 -291 -496 -291 q -552 -249 -552 -291 q -580 -184 -552 -208 q -648 -160 -607 -160 q -739 -241 -739 -160 q -735 -264 -739 -252 q -731 -283 -731 -276 q -741 -295 -731 -289 q -760 -302 -750 -302 q -787 -239 -787 -302 q -747 -144 -787 -176 q -652 -113 -707 -113 q -566 -133 -597 -113 q -527 -179 -535 -153 q -485 -137 -500 -145 q -397 -117 -453 -117 q -299 -150 -340 -117 q -259 -231 -259 -184 q -271 -307 -259 -278 q -319 -361 -284 -337 q -439 -437 -380 -398 q -511 -539 -511 -495 q -478 -620 -511 -583 q -409 -658 -445 -658 q -335 -622 -372 -658 q -299 -532 -299 -586 q -308 -481 -299 -504 q -284 -444 -319 -444 l -275 -445 l -51 -445 q 32 -479 3 -445 q 61 -558 61 -512 q 30 -634 61 -603 q -48 -664 -2 -664 z "},"౦":{"ha":765,"x_min":48,"x_max":747,"o":"m 150 78 q 48 322 48 180 q 151 564 48 463 q 398 664 254 664 q 645 564 543 664 q 747 322 747 465 q 645 79 747 180 q 385 -22 543 -22 q 150 78 254 -22 m 592 126 q 674 321 674 209 q 592 513 674 433 q 399 594 511 594 q 208 513 287 594 q 128 321 128 433 q 207 128 128 209 q 385 46 286 46 q 592 126 511 46 z "},"౧":{"ha":765,"x_min":57,"x_max":738,"o":"m 230 -10 q 105 131 152 48 q 57 305 57 214 q 156 558 57 452 q 396 664 255 664 q 637 559 536 664 q 738 305 738 453 q 686 142 738 223 q 544 -21 642 59 q 495 3 498 -21 q 520 53 492 27 q 619 180 578 109 q 661 305 661 251 q 584 509 661 425 q 398 594 508 594 q 211 508 289 594 q 133 305 133 423 q 172 168 133 238 q 255 62 212 97 q 302 10 302 35 q 300 0 302 6 q 263 -22 287 -26 q 230 -10 239 -18 z "},"౨":{"ha":765,"x_min":89,"x_max":706,"o":"m 332 477 q 351 521 351 496 q 329 565 351 546 q 275 584 307 584 q 222 565 244 584 q 200 521 200 546 q 221 477 200 496 q 262 458 243 458 q 332 477 307 458 m 89 19 q 128 54 89 54 l 260 54 q 518 144 410 54 q 626 354 626 233 q 552 512 626 444 q 444 583 479 580 q 419 589 428 589 q 410 584 410 589 q 418 565 410 580 q 426 522 426 551 q 382 424 426 465 q 274 383 338 383 q 164 423 209 383 q 120 525 120 463 q 175 626 120 587 q 319 664 230 664 q 592 576 477 664 q 706 354 706 484 q 575 93 706 201 q 260 -16 444 -16 l 128 -16 q 89 19 89 -16 z "},"౩":{"ha":765,"x_min":117,"x_max":683,"o":"m 203 38 q 118 188 118 102 q 129 214 117 200 q 158 228 140 228 q 187 216 176 228 q 198 182 198 203 q 213 136 198 161 q 255 91 228 110 q 406 49 318 49 q 551 88 495 49 q 607 184 607 126 q 562 277 607 241 q 449 313 517 313 l 310 313 q 299 314 303 313 q 276 345 276 322 q 292 377 276 367 q 310 382 299 378 l 449 382 q 563 409 519 382 q 607 482 607 437 q 548 561 607 527 q 404 595 490 595 q 262 564 318 595 q 200 485 206 533 q 188 459 200 473 q 158 445 176 445 q 129 461 140 445 q 118 489 117 476 q 208 615 126 565 q 403 664 289 664 q 599 615 517 664 q 683 485 683 560 q 646 391 683 434 q 592 343 608 348 q 647 284 611 335 q 683 188 683 238 q 608 33 683 88 q 391 -22 533 -22 q 203 38 287 -22 z "},"౪":{"ha":765,"x_min":78,"x_max":714,"o":"m 626 155 q 560 29 626 80 q 404 -22 495 -22 q 247 26 313 -22 q 182 148 182 75 q 218 240 182 195 q 286 305 254 286 q 145 385 212 329 q 78 492 78 441 q 109 584 78 543 q 208 659 145 634 q 233 666 222 666 q 253 657 244 666 q 262 637 262 648 q 238 600 262 619 q 155 495 155 546 q 222 413 155 457 q 396 342 289 369 q 571 405 503 361 q 639 495 639 449 q 616 549 639 517 q 556 597 597 570 q 530 631 530 618 q 539 652 530 643 q 559 661 548 661 q 610 644 575 661 q 679 587 645 627 q 714 493 714 548 q 648 380 714 439 q 517 305 584 329 q 587 242 548 287 q 626 155 626 196 m 511 78 q 551 148 551 110 q 510 221 551 187 q 402 278 469 255 q 299 222 343 260 q 259 146 259 184 q 299 77 259 109 q 402 46 342 46 q 511 78 463 46 z "},"౫":{"ha":765,"x_min":40,"x_max":750,"o":"m 598 664 q 629 664 598 664 q 706 619 661 664 q 750 509 750 573 q 677 327 750 445 q 718 258 701 299 q 736 182 736 217 q 675 43 736 99 q 551 -14 621 -14 l 544 -14 q 514 -11 525 -14 q 495 10 498 -8 q 495 21 495 13 q 525 49 495 38 q 619 97 586 61 q 651 172 651 134 q 631 270 651 239 q 402 64 554 147 q 81 -16 246 -16 q 42 11 48 -16 q 40 22 40 18 q 65 53 40 49 q 318 133 220 53 q 399 313 399 200 q 321 501 399 426 q 112 587 244 568 q 77 619 80 587 q 86 648 77 637 q 112 658 96 659 q 369 559 263 658 q 479 321 479 460 q 473 216 479 227 l 465 216 q 568 316 560 302 q 477 416 514 361 q 441 526 441 471 q 488 623 441 581 q 598 664 535 664 m 615 374 q 674 504 674 460 q 651 571 674 548 q 596 594 629 594 q 538 575 564 594 q 517 519 517 551 q 546 445 517 487 q 615 375 575 404 l 615 374 z "},"౬":{"ha":765,"x_min":38,"x_max":763,"o":"m 763 18 q 726 -16 763 -3 l 241 -16 q 97 34 158 -16 q 38 171 38 86 q 81 277 38 231 q 133 326 123 322 q 87 374 128 326 q 46 481 46 423 q 125 605 46 554 q 313 656 204 656 l 385 656 q 404 648 398 651 q 421 618 421 634 q 385 587 421 597 l 313 587 q 176 552 233 587 q 123 477 123 522 q 172 396 123 431 q 291 361 220 361 l 370 361 q 407 326 407 346 q 369 289 407 302 l 291 289 q 164 256 211 289 q 117 171 117 223 q 154 86 117 118 q 254 54 192 54 l 728 54 q 763 18 763 42 z "},"౭":{"ha":765,"x_min":70,"x_max":723,"o":"m 164 38 q 70 196 70 105 q 155 329 70 271 q 351 390 246 390 q 512 428 439 390 q 573 482 573 453 q 515 560 573 527 q 382 594 457 594 q 166 514 243 594 q 136 500 152 500 q 107 510 121 500 q 93 534 93 520 q 99 556 93 548 q 374 664 195 664 q 573 615 496 664 q 650 482 650 565 q 564 375 650 425 q 376 322 484 334 q 206 271 268 311 q 148 196 148 238 q 214 91 148 137 q 385 46 284 46 q 555 94 485 46 q 645 219 624 142 q 687 244 651 244 q 720 214 723 244 q 612 45 706 112 q 369 -22 519 -22 q 164 38 254 -22 z "},"౮":{"ha":765,"x_min":59,"x_max":752,"o":"m 158 83 q 59 335 59 187 q 121 522 59 436 q 254 642 174 597 q 301 656 283 656 q 330 637 319 656 q 334 616 334 627 q 291 572 334 595 q 181 468 223 530 q 139 335 139 405 q 214 132 139 216 q 394 48 289 48 q 576 131 500 48 q 648 335 648 216 q 597 485 648 415 q 450 591 546 554 l 450 658 l 706 658 q 749 616 752 643 q 725 591 747 600 q 702 586 717 589 l 608 586 q 684 490 642 564 q 726 338 726 417 q 629 83 726 187 q 380 -22 533 -22 q 158 83 255 -22 z "},"౯":{"ha":765,"x_min":38,"x_max":763,"o":"m 726 658 q 763 623 763 648 q 739 591 763 603 q 728 587 736 589 l 254 587 q 154 556 192 587 q 117 471 117 524 q 164 386 117 418 q 291 353 211 353 l 369 353 q 407 314 407 340 q 390 287 407 300 q 370 281 390 287 l 291 281 q 172 246 220 281 q 123 165 123 211 q 176 89 123 120 q 313 54 233 54 l 385 54 q 421 22 421 45 q 385 -14 421 0 l 313 -14 q 128 34 204 -14 q 46 161 46 88 q 87 267 46 219 q 129 316 128 316 q 81 364 123 318 q 38 471 38 410 q 98 607 38 556 q 241 658 158 658 l 726 658 z "},"౸":{"ha":616,"x_min":14,"x_max":559,"o":"m 268 747 l 307 747 q 506 639 412 747 q 559 487 559 567 l 559 460 q 468 268 559 353 q 533 174 533 233 l 533 171 q 287 -62 533 78 q 271 -65 283 -65 l 268 -65 q 235 -19 235 -59 q 324 49 235 -2 q 461 182 461 139 q 390 216 461 216 l 380 216 q 302 203 329 203 l 275 203 q 43 351 131 203 q 14 455 16 405 l 14 493 q 128 699 14 602 q 268 747 208 747 m 85 473 q 222 283 85 342 q 289 271 251 271 q 474 393 410 271 q 490 476 490 433 q 354 664 490 605 q 286 677 322 677 q 102 556 168 677 q 85 473 85 511 z "},"౹":{"ha":259,"x_min":81,"x_max":150,"o":"m 109 744 l 123 744 q 150 718 150 744 l 150 19 q 123 -8 150 -8 l 109 -8 q 81 19 81 -8 l 81 718 q 109 744 81 744 z "},"౺":{"ha":479,"x_min":14,"x_max":421,"o":"m 77 744 q 105 707 105 744 q 83 587 83 659 q 204 382 83 423 q 244 377 222 377 q 353 460 321 377 l 353 718 q 380 744 353 744 l 394 744 q 421 718 421 744 l 421 19 q 394 -8 421 -8 l 380 -8 q 353 19 353 -8 l 353 334 q 271 299 318 303 l 233 299 q 62 391 136 299 q 14 557 14 469 l 14 605 q 64 744 26 741 l 77 744 z "},"౻":{"ha":872,"x_min":14,"x_max":814,"o":"m 410 413 q 318 311 377 338 q 271 299 283 299 l 233 299 q 62 391 136 299 q 14 557 14 469 l 14 605 q 64 744 26 741 l 77 744 q 105 707 105 744 q 83 587 83 659 q 204 382 83 423 q 244 377 222 377 q 367 511 338 377 q 370 557 370 538 l 370 575 q 401 728 382 691 q 426 744 402 744 l 437 744 q 466 712 463 744 q 444 587 444 656 q 557 383 444 429 q 597 377 580 377 l 602 377 q 739 520 707 377 q 747 605 741 586 l 747 718 q 773 744 747 744 l 789 744 q 814 718 814 744 l 814 19 q 789 -8 814 -8 l 773 -8 q 747 19 747 -8 l 747 361 q 632 299 690 299 l 595 299 q 423 391 498 299 q 410 413 415 404 z "},"౼":{"ha":827,"x_min":14,"x_max":769,"o":"m 30 401 l 754 401 q 769 377 769 394 l 769 362 q 746 334 769 343 l 38 334 q 14 362 14 343 l 14 377 q 30 401 14 394 z "},"౽":{"ha":849,"x_min":14,"x_max":792,"o":"m 201 615 l 236 615 q 455 573 362 615 q 519 469 519 522 l 519 468 q 279 300 519 351 q 88 156 88 249 q 147 85 88 115 q 357 65 220 65 q 736 88 493 65 q 792 43 792 88 q 765 8 792 22 q 231 -5 354 -5 q 27 96 73 2 q 14 156 14 131 q 171 346 14 295 q 346 388 216 366 q 444 470 444 423 q 367 531 444 517 q 213 544 291 544 q 48 536 136 544 q 29 570 29 556 q 118 610 29 610 q 201 615 134 615 z "},"౾":{"ha":905,"x_min":14,"x_max":848,"o":"m 51 627 q 366 595 366 623 q 404 525 404 573 l 404 520 q 188 426 404 441 q 88 377 88 405 q 204 361 88 361 l 239 361 q 249 364 243 361 q 259 361 255 361 l 263 361 q 420 297 385 361 q 426 271 426 279 l 426 265 q 292 163 426 195 q 89 89 89 139 l 89 86 q 126 61 89 65 q 289 49 192 53 q 811 62 715 57 q 848 29 848 53 l 848 26 q 829 -8 848 13 q 417 -13 591 -13 q 59 13 59 -13 q 14 89 14 34 l 14 96 q 163 212 14 177 q 353 267 353 233 q 262 295 353 287 l 249 295 q 239 299 239 295 l 239 295 l 217 295 q 22 372 22 295 l 22 382 q 128 479 22 458 q 335 533 335 500 q 121 562 335 562 l 83 562 q 19 595 34 562 q 51 627 22 610 z "},"౿":{"ha":902,"x_min":14,"x_max":845,"o":"m 192 458 q 120 398 120 447 q 188 335 120 350 q 260 397 260 348 q 192 458 260 445 m 188 522 l 200 522 q 318 428 276 522 q 321 393 321 404 q 287 313 321 351 q 209 273 247 273 l 187 273 q 81 324 120 273 l 81 271 q 241 89 83 152 q 404 67 330 67 l 417 67 q 787 271 639 67 q 806 273 792 271 q 845 236 845 257 l 845 228 q 631 38 798 115 q 394 -8 517 -8 q 49 158 156 -8 q 14 289 14 223 q 72 461 22 388 q 158 516 99 500 q 188 522 169 522 z "},"‌":{"ha":0,"x_min":0,"x_max":97,"o":"m 0 -546 l 0 1201 l 97 1201 l 97 -546 l 0 -546 z "},"‍":{"ha":0,"x_min":0,"x_max":343,"o":"m 0 -546 l 0 1201 l 343 1201 l 343 1113 l 97 1113 l 97 -546 l 0 -546 z "},"–":{"ha":848,"x_min":27,"x_max":792,"o":"m 27 353 l 792 353 l 792 247 l 27 247 l 27 353 z "},"—":{"ha":1847,"x_min":5,"x_max":1748,"o":"m 5 353 l 1748 353 l 1748 247 l 5 247 l 5 353 z "},"‘":{"ha":212,"x_min":16,"x_max":155,"o":"m 155 782 q 110 731 155 776 q 83 685 86 706 q 139 629 139 690 q 80 568 139 568 q 16 632 16 568 q 38 734 16 686 q 107 806 61 782 q 138 805 121 813 q 155 782 155 797 z "},"’":{"ha":212,"x_min":64,"x_max":203,"o":"m 203 747 q 178 648 203 696 q 110 576 153 600 q 80 576 96 570 q 64 600 64 583 q 110 650 64 605 q 134 696 133 675 q 78 754 78 691 q 137 811 78 811 q 203 747 203 811 z "},"“":{"ha":404,"x_min":16,"x_max":346,"o":"m 155 782 q 110 731 155 776 q 83 685 86 706 q 139 629 139 690 q 80 568 139 568 q 16 632 16 568 q 38 734 16 686 q 107 806 61 782 q 138 805 121 813 q 155 782 155 797 m 346 782 q 302 731 346 776 q 275 685 278 706 q 330 629 330 690 q 271 568 330 568 q 208 632 208 568 q 230 734 208 686 q 299 806 252 782 q 330 805 313 813 q 346 782 346 797 z "},"”":{"ha":404,"x_min":64,"x_max":394,"o":"m 255 595 q 300 647 255 602 q 327 693 324 672 q 271 749 271 688 q 330 809 271 809 q 394 746 394 809 q 372 643 394 691 q 303 572 350 595 q 272 573 289 565 q 255 595 255 581 m 64 595 q 109 647 64 602 q 136 693 133 672 q 80 749 80 688 q 139 809 80 809 q 203 746 203 809 q 180 643 203 691 q 112 572 158 595 q 81 573 97 565 q 64 595 64 581 z "},"•":{"ha":741,"x_min":32,"x_max":587,"o":"m 342 356 l 396 418 l 423 453 q 461 496 444 481 q 503 511 479 511 q 543 504 527 511 q 581 481 559 496 l 586 460 q 587 440 587 452 q 580 409 587 428 q 559 380 572 391 q 482 356 535 359 q 392 338 421 345 q 338 318 362 332 q 439 287 380 297 l 495 281 q 560 251 533 276 q 586 190 586 227 q 581 153 586 172 q 514 123 548 123 q 458 139 481 123 q 414 191 442 153 q 374 244 386 228 q 324 287 346 273 l 324 284 q 353 180 324 251 l 374 139 q 378 118 378 123 q 386 75 386 104 q 366 23 386 46 q 311 -8 345 0 q 259 24 278 0 q 236 76 236 46 q 251 142 236 105 l 263 177 q 292 287 292 252 q 193 177 257 267 q 112 123 153 123 q 73 130 88 123 q 35 153 59 137 q 32 195 32 185 q 60 255 32 236 q 131 281 88 275 l 180 287 q 278 318 247 299 q 165 351 235 342 q 73 372 96 361 q 34 444 34 394 l 35 481 q 109 512 78 512 q 161 493 140 512 q 208 439 182 474 q 253 379 233 404 q 292 346 273 354 l 292 356 q 269 446 292 390 q 243 508 246 503 q 233 563 233 538 q 255 610 233 587 q 311 642 276 632 q 362 611 340 632 q 385 567 385 589 q 367 490 385 533 q 326 346 326 398 q 342 356 332 348 z "},"…":{"ha":1331,"x_min":27,"x_max":1277,"o":"m 27 38 l 278 38 l 278 -53 l 27 -53 l 27 38 m 536 38 l 789 38 l 789 -53 l 536 -53 l 536 38 m 1027 38 l 1277 38 l 1277 -53 l 1027 -53 l 1027 38 z "},"₹":{"ha":910,"x_min":64,"x_max":864,"o":"m 819 564 q 864 540 864 564 q 852 517 864 527 q 819 508 840 508 l 639 508 q 557 337 639 409 q 383 263 484 263 l 642 94 q 688 40 688 64 q 670 3 688 16 q 624 2 650 -8 l 131 335 l 118 350 q 104 366 104 361 q 119 398 104 385 q 149 410 134 410 q 179 401 164 410 q 350 345 268 345 q 488 394 431 345 q 544 508 544 442 l 121 508 q 81 517 97 508 q 64 540 64 527 q 121 564 64 564 l 543 564 q 404 720 519 651 l 110 720 q 80 729 93 720 q 67 751 67 738 q 80 774 67 765 q 110 784 93 784 l 830 784 q 855 774 846 784 q 864 751 864 765 q 854 730 864 738 q 830 720 846 720 l 536 720 q 639 564 613 656 l 819 564 z "},"℃":{"ha":1228,"x_min":96,"x_max":1140,"o":"m 1057 196 l 1140 196 q 987 39 1082 93 q 790 -14 892 -14 q 511 98 629 -14 q 393 378 393 211 q 508 658 393 544 q 790 771 624 771 q 1025 694 921 771 q 1137 565 1110 634 l 1054 565 q 907 680 999 645 q 789 702 848 702 q 562 604 656 702 q 468 375 468 506 q 566 148 468 244 q 790 51 664 51 q 936 89 867 51 q 1057 196 1006 128 m 238 905 q 339 864 297 905 q 382 763 382 822 q 339 663 382 704 q 239 621 297 621 q 138 663 180 621 q 96 763 96 704 q 137 864 96 822 q 238 905 179 905 m 238 680 q 295 705 271 680 q 319 763 319 730 q 295 821 319 797 q 238 845 271 845 q 181 821 204 845 q 158 763 158 797 q 181 705 158 730 q 238 680 204 680 z "},"℉":{"ha":932,"x_min":96,"x_max":843,"o":"m 238 905 q 339 864 297 905 q 382 763 382 822 q 339 663 382 704 q 239 621 297 621 q 138 663 180 621 q 96 763 96 704 q 137 864 96 822 q 238 905 179 905 m 238 680 q 295 705 271 680 q 319 763 319 730 q 295 821 319 797 q 238 845 271 845 q 181 821 204 845 q 158 763 158 797 q 181 705 158 730 q 238 680 204 680 m 458 -2 l 458 758 l 843 758 l 843 691 l 533 691 l 533 413 l 830 413 l 830 346 l 533 346 l 533 -2 l 458 -2 z "},"⅓":{"ha":1003,"x_min":94,"x_max":904,"o":"m 718 252 q 789 270 763 252 q 833 346 833 300 q 801 412 833 386 q 743 434 774 434 q 693 430 712 434 q 658 421 674 426 q 610 410 619 410 q 594 418 600 410 q 587 437 587 426 q 602 458 587 449 q 639 474 616 468 q 721 487 682 487 q 789 479 760 487 q 841 453 817 471 q 894 348 894 413 q 833 246 894 279 q 795 230 814 235 q 894 144 868 216 q 904 91 904 123 q 889 33 904 59 q 852 -11 875 6 q 734 -45 806 -45 q 608 -13 659 -45 q 594 8 594 -3 q 600 26 594 19 q 615 34 607 34 q 635 29 623 34 q 733 8 683 8 q 811 30 782 8 q 840 87 840 53 q 830 141 840 121 q 805 176 821 161 q 722 203 773 203 l 696 203 q 677 210 683 203 q 670 227 670 217 q 677 244 670 236 q 696 252 683 252 l 718 252 m 345 -30 q 318 -54 335 -54 q 289 -45 300 -54 q 278 -26 278 -37 q 281 -8 278 -16 l 573 857 q 600 883 583 883 q 642 849 642 883 q 639 837 642 843 l 345 -30 m 131 730 q 116 725 125 725 q 101 733 107 725 q 94 750 94 741 q 105 768 94 760 l 227 846 q 245 851 235 851 q 264 843 255 851 q 273 819 273 835 l 273 378 q 263 357 273 364 q 243 350 254 350 q 222 357 231 350 q 212 378 212 364 l 212 782 l 131 730 z "},"←":{"ha":1042,"x_min":38,"x_max":1015,"o":"m 310 394 q 358 308 335 359 q 382 172 382 257 q 229 333 308 273 q 38 434 150 393 q 229 534 150 474 q 382 693 308 594 q 357 554 382 613 q 313 474 332 495 l 1015 474 l 1015 394 l 310 394 z "},"↑":{"ha":578,"x_min":42,"x_max":562,"o":"m 262 658 q 176 609 227 632 q 42 586 126 586 q 200 737 140 658 q 300 928 260 816 q 402 737 342 816 q 562 586 461 658 q 421 610 479 586 q 340 656 364 634 l 340 -49 l 262 -49 l 262 658 z "},"→":{"ha":1044,"x_min":42,"x_max":1019,"o":"m 747 474 q 702 548 722 508 q 675 693 675 611 q 827 534 747 594 q 1019 434 907 474 q 827 333 907 393 q 675 172 747 273 q 700 313 675 255 q 744 394 725 370 l 42 394 l 42 474 l 747 474 z "},"↓":{"ha":580,"x_min":46,"x_max":567,"o":"m 267 915 l 345 915 l 345 212 q 426 258 369 233 q 567 283 484 283 q 406 129 466 209 q 305 -62 346 49 q 205 129 265 49 q 46 283 145 209 q 180 259 129 283 q 267 209 231 235 l 267 915 z "},"−":{"ha":848,"x_min":27,"x_max":792,"o":"m 27 353 l 792 353 l 792 247 l 27 247 l 27 353 z "},"◌":{"ha":1124,"x_min":88,"x_max":1036,"o":"m 563 680 q 550 680 563 680 q 517 698 536 680 q 498 743 498 717 q 517 788 498 769 q 563 806 536 806 q 607 788 589 806 q 626 743 626 769 q 607 698 626 717 q 563 680 589 680 m 563 -142 q 550 -142 563 -142 q 517 -124 536 -142 q 498 -79 498 -105 q 517 -34 498 -53 q 563 -16 536 -16 q 607 -34 589 -16 q 626 -79 626 -53 q 607 -124 626 -105 q 563 -142 589 -142 m 151 268 q 138 268 151 268 q 106 287 125 268 q 88 331 88 305 q 106 376 88 358 q 151 394 125 394 q 196 376 177 394 q 214 331 214 358 q 196 287 214 305 q 151 268 177 268 m 973 268 q 960 268 973 268 q 928 287 947 268 q 910 331 910 305 q 928 376 910 358 q 973 394 947 394 q 1018 376 999 394 q 1036 331 1036 358 q 1018 287 1036 305 q 973 268 999 268 m 207 64 q 194 64 207 64 q 162 82 180 64 q 144 127 144 101 q 162 172 144 153 q 207 190 180 190 q 251 172 233 190 q 270 127 270 153 q 251 82 270 101 q 207 64 233 64 m 919 474 q 906 474 919 474 q 874 492 892 474 q 856 537 856 511 q 874 582 856 564 q 919 600 892 600 q 963 582 945 600 q 982 537 982 564 q 963 492 982 511 q 919 474 945 474 m 767 626 q 754 626 767 626 q 722 644 741 626 q 704 689 704 663 q 722 734 704 715 q 767 752 741 752 q 812 734 793 752 q 830 689 830 715 q 812 644 830 663 q 767 626 793 626 m 357 -88 q 344 -88 357 -88 q 312 -69 330 -88 q 294 -23 294 -49 q 312 22 294 3 q 357 40 330 40 q 402 22 383 40 q 420 -23 420 3 q 402 -69 420 -49 q 357 -88 383 -88 m 207 474 q 194 474 207 474 q 162 492 180 474 q 144 537 144 511 q 162 582 144 564 q 207 600 180 600 q 251 582 233 600 q 270 537 270 564 q 251 492 270 511 q 207 474 233 474 m 919 64 q 906 64 919 64 q 874 82 892 64 q 856 127 856 101 q 874 172 856 153 q 919 190 892 190 q 963 172 945 190 q 982 127 982 153 q 963 82 982 101 q 919 64 945 64 m 357 626 q 344 626 357 626 q 312 644 330 626 q 294 689 294 663 q 312 734 294 715 q 357 752 330 752 q 402 734 383 752 q 420 689 420 715 q 402 644 420 663 q 357 626 383 626 m 767 -88 q 754 -88 767 -88 q 722 -69 741 -88 q 704 -23 704 -49 q 722 22 704 3 q 767 40 741 40 q 812 22 793 40 q 830 -23 830 3 q 812 -69 830 -49 q 767 -88 793 -88 z "}}}
